<mxfile host="app.diagrams.net" modified="2020-08-04T11:36:39.580Z" agent="5.0 (Windows NT 10.0; Win64; x64) AppleWebKit/537.36 (KHTML, like Gecko) Chrome/84.0.4147.105 Safari/537.36" etag="oG7D_wUovNECbG0JsOSg" version="13.5.5" type="github">
  <diagram id="M-LVb7Fv3tig6SuD5p-e" name="Page-1">
    <mxGraphModel dx="1865" dy="547" grid="1" gridSize="10" guides="1" tooltips="1" connect="1" arrows="1" fold="1" page="1" pageScale="1" pageWidth="827" pageHeight="1169" math="0" shadow="0">
      <root>
        <mxCell id="0" />
        <mxCell id="1" parent="0" />
        <mxCell id="benL4QOIB2VxET3UyS8y-7" value="Azure" style="rounded=1;whiteSpace=wrap;html=1;verticalAlign=top;" vertex="1" parent="1">
          <mxGeometry x="30" y="320" width="430" height="180" as="geometry" />
        </mxCell>
        <mxCell id="benL4QOIB2VxET3UyS8y-6" value="Build" style="rounded=1;whiteSpace=wrap;html=1;verticalAlign=top;" vertex="1" parent="1">
          <mxGeometry x="30" y="130" width="430" height="120" as="geometry" />
        </mxCell>
        <mxCell id="benL4QOIB2VxET3UyS8y-3" value="" style="edgeStyle=orthogonalEdgeStyle;rounded=0;orthogonalLoop=1;jettySize=auto;html=1;endArrow=classic;endFill=1;" edge="1" parent="1" source="benL4QOIB2VxET3UyS8y-1" target="benL4QOIB2VxET3UyS8y-2">
          <mxGeometry relative="1" as="geometry" />
        </mxCell>
        <mxCell id="benL4QOIB2VxET3UyS8y-1" value="Provision Infrastructure" style="ellipse;whiteSpace=wrap;html=1;aspect=fixed;fillColor=#d5e8d4;strokeColor=#82b366;" vertex="1" parent="1">
          <mxGeometry x="120" y="160" width="80" height="80" as="geometry" />
        </mxCell>
        <mxCell id="benL4QOIB2VxET3UyS8y-2" value="Deploy PR" style="ellipse;whiteSpace=wrap;html=1;aspect=fixed;fillColor=#d5e8d4;strokeColor=#82b366;" vertex="1" parent="1">
          <mxGeometry x="280" y="160" width="80" height="80" as="geometry" />
        </mxCell>
        <mxCell id="benL4QOIB2VxET3UyS8y-4" value="" style="endArrow=classic;dashed=1;html=1;dashPattern=1 3;strokeWidth=1;entryX=0;entryY=0.5;entryDx=0;entryDy=0;endFill=1;" edge="1" parent="1" target="benL4QOIB2VxET3UyS8y-1">
          <mxGeometry width="50" height="50" relative="1" as="geometry">
            <mxPoint x="40" y="200" as="sourcePoint" />
            <mxPoint x="440" y="260" as="targetPoint" />
          </mxGeometry>
        </mxCell>
        <mxCell id="benL4QOIB2VxET3UyS8y-5" value="" style="endArrow=classic;dashed=1;html=1;dashPattern=1 3;strokeWidth=1;endFill=1;exitX=1;exitY=0.5;exitDx=0;exitDy=0;" edge="1" parent="1" source="benL4QOIB2VxET3UyS8y-2">
          <mxGeometry width="50" height="50" relative="1" as="geometry">
            <mxPoint x="50" y="210" as="sourcePoint" />
            <mxPoint x="440" y="200" as="targetPoint" />
          </mxGeometry>
        </mxCell>
        <mxCell id="benL4QOIB2VxET3UyS8y-8" value="" style="shape=image;verticalLabelPosition=bottom;labelBackgroundColor=#ffffff;verticalAlign=top;aspect=fixed;imageAspect=0;image=data:image/png,iVBORw0KGgoAAAANSUhEUgAAAMYAAADGCAYAAACJm/9dAAAgAElEQVR4Ae29BXgc55ommtndmTvPnrO79+6deXb2zpnZEzbE7Dh0khM4ycnkBB2HzBRDyGEnsWOKSbZlS7LIbJlRzJZkQQssZmZmZnrv8/7VJbfbLbvV6m5R1fOUqqtUXN/7f/x9D0CZzPoG+vv7MZzZrDc7gS/2wAR+dr0fvR8AZ04yUatXx8xirN73SL1gBRhab54EpDlpr2v+b6z/1gbLeH7WoX6rCQsMmfy1iWOoL3C87j/R38uEAobmiCgDY7wStimfS/M9mvI6I3nucQ0MEv9E+IgjRUDyux2Pg8y4A4b8sUaKWCbidRVgjMKvLgNBXo6mW2zpaEBjezWaOupQ31aG0oYElDUkqucklNbHo6DGH/k1nsiv8dIxe6OkPhZlDUnqYxLEOWpaisQ5G9tr0NxRBy17wYi/An4LzXnEb8iAGxh3HMOAd6D3IT19QFtXC5ray9HQnoPG9nQU1gYgueQMYgoOIjx3I8JyNiAidzkicpcgMONdBKS/hYD0t+Gf9gY8k56DZ9KfxOyV9LxYd0uYDteEqYPMT8Aj6VlI+0rH8Xi/1L+Kc/LcgenvQJWzSFxPlfMZVDnfIjrfAonFJ5Bb5Y26lkQ0tmehsb0ELZ0N6O41//g+Gget+310BRg63hBH4J7eTlQ2ZSK7yhfp5SeRUXEQUXk/IjB9KbyS/wqPpCfhlTwNnklPwDNpKjySJsMjaRI8EifBI+lxMXslT4ZX8hT1PBXeKdPumn1SZuLe8/S7jvFOnqpx3ikD15OuzetPhmfSFHFvXsm8v1nwTH4Z/qkfIzznG6SW7UNamSOyKt1RWp+Ezp429PX36XgTxts01jjImAGGqUYdjp8Ud6qa41BU641beftxM3M1AjPegG/KC3BPnAXXhMfhlvAgPJMeBYndO+UJ+KTMgLcg6lnwSZHn2fBJGQ2zfD+z1Pc4UwJXMsHyGNwTH4JrwiNwS5wB7+TnEJTxOgIzFiIidztyKq+iqjkSta2F6OoxHjC0z2Sq76l9HUPXRzUwTPHyunt70N5Vg9wqf8QXWyA6/yv4pb4Ht8SZ8Eh6DJ5Jk+CpHnG9k6cJAEiEPxoI3pj3QPDMBJ/RK3mqmsOQ6z0Gt0RyulehylmH+KLtSCu7hvrWfHT1tBtKZ2PuuFENDGO9TeoFxXVhyCw/hZuZ6+GbQvl+JtwSH4NH4iPwTp6iFmeMSXhj+VzkNBTBHoVbwiPwSJwOn5Sn4Zf6IeKLLFFU54O61mJjfR5xHlMMgsO5wVEHDGO9oNbOOpQ2ROJW/nYEZbwHt4RZcEt8WBKFkinrz1CLQGOZgM117+Qs0wVn8Uh6BK4Jk+Cb+hrCcz5HZsV1NHeUoNdIKoqxvv9wQMFjRw0wjPVCKptSkVhiCd/Ut4XySYWU4hF1gtEh/5uLmE15nVmgAcAj8XEhgnklPYfwnI3Iq/ZDd8/wFRPSgvltZ3dCacSBYQwbfFdPNwprghCW8yV8kp+FW8JD4sNJ1h7K0qYkkol+bopd00FO4p44HYHpC5BcehINbeV3UpoBayMJkBEFBkeF4XCKnt4+5FS5IiRrFdwTKRM/LpRJBQgjBdYZwnBB3c0r+XUkFtuivnV4ABkOfRiAxYFDRhQYA3dhwI/KxiSEZH0Kt0T6EB5TlOdRxhVp0HBLfBSeya8ipewMOrs7DfjKI3fImANGZ08XEout4JE0T9jkJXFppEZI5br35s7URabALeExBGYsR2lD4shR+hCvPKaA0dRRjpCsz+GW8LBaZJqj6A+jjFPoBsosuCc+DPfE55BRETBEEh2Z3ccMMBrby+CfvgDuiY8qZtYxAYa7ual38mS4xM9CfPFVg61O5tI5zAoMQx+qrasRwZlrhDNufHqh7yYi3SPvWN9vDnySp8Alfg4yKm6MDCvQ86pmA4ahoOBzpJQcEbFKCijGOjB4/3Pglfw4XBJfRl1rlZ5keuduw6GlO880+JoZgTH4TdzrPy0d1fBNeUXtlxgPhKE8g2/KbFyPexi38m3u9env+T9Tg8MswKATz1BHXl51kIhrkiJZFaIaLyKWR9LDCEj/HJ1MchmFk1mAMZznTi45DffEqYqfYowq3IMDeQrckz5GQ3vjcMjDZMeOemCkl11XR3cyoUfhGOPlHVDP8ElZgZbODpMR93BObBZgtLR3GSxK1bXkwyv5aRHdOV6IYqI/B3UMl4SHEJ77m8Fm277+fvQaKp/rgRizACO/uhm9fYbFSzLlUpXzk9pUOzY4hm/KHIg5dQ78NGb/1LnQOac9iRtp8+47ax+reW7pmmPj/fikPAHn+KdQ1pimB4nq3qWhtRONrV26/2mErSYHBuEQX1gHItzQidljXskviSDBkRptOcr5DhD5XPilSvOdxPok/FOfVJskZ4tca9dEFjuYDpeE6bgaNwWXYyfjitZ8KfYxnLn1R5y91xz9IC7HTrp9bNxkuCRME7N70kx4JRMUc8T1eQ/yfcn3KS0lwI7UO+R1fVNn4Xr8wwjJtjSUHMRxVU3tqGo0XUahyYHBp7gYX4L6luHJkqX1KngmPaXOrTDtyCgDwD9trhjFbxP7LLgnzYBr4hO4EjcJ52MehdOtB3E84t/hqPpX2IT+vzgY/N9x4ObvsS/od7AI+h12B/yjmHcF/CN2+P89tvn/F2zXmrf6/Sds8nngvvM2v/98x7E8J+e9gf9VXI/X5fUPh/4Tjob/Aaej/ogLMY/iWvxkcc8eSUw4mi3AI3GoJwXA+bzmAItfykxcj/8j/NK+Rucw02RvlTYhqaplWOC618FmAca2gCy4JpXe6z70+l9Zwy14J/8FHiIsZPjKOLkAxZE7RteUuWKk52h8IeZxnIr6dzio/kUQm+XN/4E9Ab/Ddv//jC1+D0iz7wP4VT1v9pWIm0t5lv/H5RbO8nFay61+D+B+8x3HalyX5xbXU4OLvzWvx/PynvcG/h5Wwf9TPM+JyD/gXPQjuB7P6OSZQvQjV7n9LshdjDMAUczzSZmKa3GTcSPjZ7R0Nuv1vQffqR8Ho4oRXTnGgfGzfxbWXE1ArxFs1nWtBQjOXAu3hEeH7PSTxSF+fI6YvilzBVFci5+Cc9EPw1H1/+Fg8P+NPYH/iJ03/gHb/P4TNsvE5iMRnyA4DaK+HzGP9P8HwKQFXnKoLb5/h99u/L3gaJbB/wNHVP+Ks7ceEhxGAgvfkySWkasYAhSKThzIrsbNRlT+UaPUtcqtbcVij0wkVrcOjp1h/scsHGPnzRxMPRSM6/HGSaDv7O5AapkTvJNfhLsoZkA/h+7RjaOVNAo+KUZFj+SZuBTzOI6G/29Yhfw/sAj6vQQADcIh8csAGGnCNuX1CRr5WWUuw+VWv7/DvqDfwyrkf+JYxB9wMeZxkZ3Hdym4ShpFsHuLXwQEE8euxT0Gr5QVKKiNGyapSod39fRhp6oQ77ikI7W2zSjn1HUSswBjV3AuJluF4C9HI5BRbjyHTl1rEWIKdsM7mfWfHgGLizE/Y+ADqhXha3FT4BT1f2AT8k/YFfB/3cEJJgIAhgouGTDkKgQKOeeugH+AVfA/4XjkH3AplkCZCX81NyFY+M4ljjIdXkmT4Bw/GR7JHyGu+DI6e7p10Z5B266lVeEd5zR86J4xPoAx83AonrAJxeKLcSirNy7S61rzkFB0CL6pr8A9cQpcEh6Ec/xjOBn5bzhw879hh/9/EYqtPCryww+VWCby/jJQ+P42kaP4/h32Bv4OtmH/LEQvV5FFOQku8awgwhzwxUgr90RLp3G/c1RxAxa6Z2C+WwY+cs8cP8B42jEc02xCsfxSHCoajG9qa+tqQEbFJfikrcOuG/+CHz0fEPMvPgoQjAlsAoUg2ej1AH7ykgwOJyOeRnjuLuTXxKC7t9cgbnCvg6KKG7HMMxPvq0Ex7oDxjABHiABHYY1prAqscVTamAFV7ikci3oTuwP+VQCEH5LKtGwdMiaxjPdzEQx8bxSvOOD87PUA9gU9hLMxCxFTdA21rcO3Og4GjPAiNShcM/CJR6bgFuMSGAIch0Px9ulbCM02LCZ/sJeoa3tZQz5U+Q64HL8eFkGPCHD84i2NeD97SwroeCdsQ56PXIHvhwPKJvGe/g6HQp6CS9LXiC46g7rWGl2v22jbenv7cCW9Ch+7Z2CBmwSKcQ8MgmOmbRiesQuDXVgu2juNp6AN+mX6gaaOauRURyIoywFOMX/D4bC52OEviV0kAAKGXEXWRwwhqLF2DA0QQn/wkZ6f72Gj5wPYeeN/wzbsSZyJWYDQnJMoqo9H67B9EIN+nTv+UdXcif0RRXjXJR0faIBiQgCD4HjSXoXpNqFYdzUB0QW1d7wcc6y0drajsC4N0UUn4Ju+A6eilsAi6P/gN//fY4vv3wsZ+gdPSZYWoFE76cYa8fN+hW7gc5sLyM+11fcfsMP/99h/899wJnq5eA9xJadRXJ+Btk7j64L3+q59fX0Iyq/H5345eMc5HR95ZArxiYCQZ4pR41aUIijkmUr59MOheN5RhT0BmSgxstXqXh9C+399ojlMA8oaMpBYEgi/jN9wOXERnKLfhr3qBewJeFiIFxQxtGcCh4q+MHOS6/jc9hPI/gLK6cMBFY+XzyUvZSckr8vr8z60701etwicBIfwF3Em5h1cSVwMv8z9SCkLQWlDBtq7G8HnH6kps7oFu8IL8b5rOuar9QkZDJrLCQMMGSBPOqgwxTpE6B7nogtR1zy8+CpjfmASTGtnB6qai5FXG4iUchdEFZyGf4YlriZshGPEK7AKewyWwX/EgZv/jj2B/4JdAf+MrX7kPL/DVjH/N0G033s8AM35Bw9JoZWtaPKS2zX3+85DIvptfv9dnE867++x68Y/Y2/gv4jr8vpWoY/iaOTLcE7ahIDMQ+I+k8uckV8biuqWcrR3GZ4GYMx3Kp+rpLEdpxLLscgjU4hOJHxNIGj/nnDAkAEy2y4M9HvMd7qF01EFqGw0rj1c/iDGXvb194p2Xo3ttahozEdxXQbSKsLFiJxaHoq08gjEFF1CQM5mBGrMN7J/hnvqlwOzm/j9Fbj9zv02C6U3vSIKPB9H+rTycBTXZaKyMR9N7TVo7eSob3xzqbHfFc+XV9eGY/FlWOmVpVOX0AaEvD5hgUGAULyaZReGGTaheOv0LaGg51Yx+Mzw8HVTfFzlnEN7A7Q0pVW1wDGuDCu8svC2893KtQyAwZYTGhgy9yBAyEHoNX/5aAQ2eachKLMSbR3DLzc/tE+q7D2cN9DY3o0beXXYrirEJ+4ZQ+IQ2gBRgKGhoBMoc+1VeMI6BPPsVPj4fCxOROYhqbQB3d0KSIZDtKY6tr2zB4kVLTidWI4v/HOwwDVdBP+RsLWJfSjrCjC0gCFzkXkOKsFFplqH4M+O4Vh+JR62YblIKW1AW6cCElMRuj7nbenqRVJ5k1CmfwzKx0duGUJcooNuuICQwaMAYxBgyADhkpYsmnpnHQ7FU/YqrLgcB+vQHARmVqK6YWwo7foQ3Kjdpx+oaOpASFGDUKS/DcgVYHjPJR3vuaYbDQwyKLhUgKEHMGSQUBd5ykGFWbZhwuQ7zzYMbzvdwjrnJFyKLUJiWQNqaf41cT/rUUvARrqx/r4+1LZ1IaWqFdfTqrA1tBDrfLPxvks63nJOE6EbJNyPNRxymkRtjN8KMIYADBkg8nKeg9qqRW5iG4a5dmH46Gw0fvZKg5UqDzczKlBQ3YyO7rFh2jQSXQ/5NO3dvShtaEdwQT1OJFVgf2QRvvTPwfuuGZjvmg5yBka8mhII2mBSgDEMYMgA4VLiJretW1OtQvCsfRhePRGJ+edisc07Daej8uGbVYWUskY0tHRiRF3AQybf4R/Q19uHxrYuZNS2CbHoenqVyKv+8kYuVnln40O3DLx5PU0oz9QXCARzgkETHAowjAQMTZDIv6nA08o12zZMBDPOEIlUIXjeQYUlF2LxhWsyNvtnwimyAAFp5UgorkNBbQvq2rrQPRa5TH8/mBba2NmDksYOpFY2I7ywHlfTqmAVW4odqkJ8H5grEoHedk4T5lRyBHIGBvGRGDWJcyR/K8AwITBkgGgvCRhG/TKhilav2YdD8bS9Cn86Eo4XjkbgtZNR+OJaAnb7Z8IqOBvHowpwIbEUnumVSCyqQ2FVM2oa20U4S1dXjzAl9/aYRlyjs6yrpxdd3b2oa+1CbUsXihvahQMtsLABXrm1uJZeJSxEdjEl2BZSgNU+2VjimSXCLz52y8B86gZqTsD4pNEEgMHApwBjBIChDRRZqZ9nrxKRwOQyBA4tYTJ4mM8+zToELzmG482TUVhwNgYfnovBsivxWHYlASuuJmCdawrWuCbjR+80nFDl4WR4nljyt5jD83EusRyXUytxKeXumdsvJldgf1QJtoYXYXt4EX4JKcBPwfli/vpGLr7yz8U6n2ws9cgUYg9FH3qWWTiA4dskfI7+zJfmTAIbKXFoMKLXZ7sCjFEADG2gDLZOADGEfo6dZBmjwk/xTJ4Jomk2ISLEZbZtKHTNr19IEITL6NLBZhI4w7FJ7MIkqjaLkugp9lD+J9HrQ2BjdR8FGGMIGIMBRtd2gkjX/PaVJCz0zBpQbGUFV3M5VonZmPetAGOcAkMXWLjtnStJWOSZNa5He2MARAGGAgwFJDochQowFGAowFCAcTvVdTBRY7xvV0Qp/XwlCsdQOIbCMRSOoXAMhWMoHGOgQsh4F4+G8nwKMBRgKMDQISYqwFCAoQBDAYbB+pOifOsgnqGIJmNtX4VjKBxD4Rg6QK8AQwGGAgwFGIooxVZjrCzIwLmxJt6Y834VjqFwDAUgOgYJBRgKMBRgmBgYmqHqmr+NEd060udQrFI6iMecoo25r2Uox2BiEpOUWMdJztYbLNGJyU1ykhOPGYtJTQowzASMpxyk7Dtm4InMO+Z8q1NXmcLKVNY5dmEiQ4/7MC98OPoSj+U5eC7W5ZWv9Zfz8XjXJUMQrkzgmumoMkEIIKgr/DFfe4lHBr7yzxEprltURbCIKsZFrfRYrl9OqYRDXBm2qorwc3CBOGaxOysFpglQ8bzkLiPNEe53ffk9jIs+36NN+WbdqRm2YepauGH487EIvHwiCmuuxOMH1yTs9s/AwZvZ+M03Hd84J+Jdp2j8+VikKIjA4ggzbELwhE2IAA3zwPXhLgQgrznTJhTPOarwp6MRWHQhDntvZGB/YBaORBfhano1nJIqcCyuDFZRxaKAwRrfbFG8gCVsOC/0yMSPQXmiyIF/QR1SKltQ39Y9pDrw/f1AbWsXkitb4JpVgz3hhaL6OIsjkPOMZoAowDABx+AozRH6GfswLLkQh5980uGeWIqC2lY0dPagt+/uNgP9ff1gTdbq1i5kVjQiKKMCB4Nz8LVHiug+++pRqU0z87vJWcgNNIHCdf5vrm0oFl6IhXVIDm7lVYtCZp29d19Ps0oUb6epqxfZNa24mVeLm3l1yK9r11korqO9HdU19cjIK0VAbDZuxGbDJSQJ124mwD8mC4Fx2cgprEBzE7vl3n3d8qZOUVXkh8A8UUyN5XNGI0AUYBgRGKxxy1YCzzuGY5tvOmIK69Dc1qlJg+J3f28P+np60Nvdg57ubnD9XlNrWxeyK5vgk1GJXf4ZeOPULTznoBKldyiCzTgcJgDxjVsSQrIr0dSqdc2+XtQ0tqKqoQUVtU3ILKhAUUWdWK9vagXudf3+fmTkFMPCyRdLd1/Aoh1n8O7Px/DnL2zw2JK9eHTxXjy2xAKPLbXAI4v34vEle/HKBlt8vPU0Pt1/GT85esA5MBZF5ex9eBsorZ09CCqox8agvIFKg/cTb8z5fwUYRgAG5XkSJ/v7bfVJR1Jx/R10Xt/QhIDodNi7qLDtuCc+33cR6y0u4DP18ssDl8T2nae8cejyTZz2jUZwTAbyiyvQ1nZ340ZW8wvLrsKBm9lYeD4Gyy7Ewi+9HKz5Kk/yNW2uBuNLy8v405e2eOqzw3j688OYt94aT31mI9Zf+cYeXx64jN1OvjjiFo7IpFw0Nt7ZG72mrhEO14Lx0gZb/NtHu/Do0n2Yvvog5qy1umuevdYK01YdxJQVB/D40n0CNNNWHsBzXxzGj7YuuBIYD55Pntq6euCRVQ2KcizDM1q4hwKMYQKDMj2V52UX4xBXVCd/b8EJVPFZ2HrUA3/beAwzVx3Agwv3CGKZvOIA5JkENHn5fomIlu7Do0ss8PCiPZiz2hKvfmuPdzadxOcHr+GSbxQiU/LQoEW0LPXZ0t41cN3SyjocuhSEN348Kq750KK94vwzVh+EPM/89CBmqtdJ4Lz+Y0v34aGFe/DUukN46+fj+P6wM4KiM9AgRCLp9HWNLXC4HoIXvjgsOMTsNXcDQxdYZq05JK7Na5CjvLXxGE55hKOB3Eo9sYjbzrBCUZtqNFixFGAMAxiCU9iE4if3ZKnKufojh8Rl4lOLC5gmiH4fpq44gJmfHrprdNVFRPI27j9tlSWmrNiPycv24YkVB8QovGDTCfxy1AM+4Sl3cIjGplZYXb6JlzbYi1GagBvqNXntGZ9Ko718zfc3ncAJd9Udo3xaXhk+P3AZU5btE/co37M+S4KJ74Oi13u/nIDLzbiB6vCd3b04n1yJBeraVeYUnbSvpQBjGMBgcbNvXZLRqh6xm1vaseWIO2atPoDHl+0DR0p9iEWffUhQnHneRxfuhmtQrDzYIqewHCt3nRMj/hMrLY14zUMCjJOXWeBvPx7BGc8IdLRL+ktfby9Oe0bg2XVWYh99nkF7H3Kqqcv34RcHV1TX3havvHNqhWWMhd20CdZc6wowDAQGTaKU76uaJB2grKoey3adx+NLLITYoE0Exlgn0KYss4DjtWCAtlAAN26l4bVv7DBp2X4BHGNcR/scYpRfeUBwiGU7zyEqOXcAlJGJOXjzxyNCFNM+Tp91crXHl1rgnZ+PIyolb+C8gfl1YN3bkQKHAgwDgEHr058cVIgppKUFaGltx/p9F4VuQOVTH4IwZB9af6jA9qj7AYYnZGPOp5KOYMj5hnoMAUI94am1h3DUOWTgPvKKK7F01zmhHw31nPL+PO/zXxxGUFTqADi8smtEQeiR0DkUYAwRGNQrqGzTWSZP+5x8MWmJBUwJCoodH/56ErX1TeKy9Q3N+PDXE4JTyMRlruX0VZaYtHSfAGltvSQC1Te2YNXei8MCB/WiZ9dbISAyRf1q+3E2uUKAw1wilHwdBRhDBAY90K+diERpvdR7LyIpR4za01fpNl8ag1gpbsxcbSlMuDIYd570Fkq2Mc5vyDlmrjkkQLBshxPKKiVrXE19M5bsPCsUa0POyWMIjuc+s0ZkUo54VCrkm4PzhbVKJlpzLBVgDBEYDNHYE5ApPhpFmrUWF4Wp1VBCuN9xc9dK4svXVlcH9IqgW2nCFDtjiJau+11rqP8nh6R+QHBUVEu+Gy4/2eaEScv2GSxSUl96/XtHFJXViPesKmwQzShJrOYABa+hAGMIwGDYBduH0aPNiUrojFUHwNFzqESl7/7kRM98Zo3EzEJxzdqGZry18Sgmr9hvsmvqe2/cj+Cg7rN273k0qX0e2QVlePVrW2GWHcq5NPelR333KR/hLW/p7MV6vxyzKuIKMIYADHq3l16KR4e6z/cmR3cxMppKt+B5OfJuOuIuQME/J91UYpQ21TU1iVPf30IpX2KBXxzd0dXdLe7VNzwZ01ceMNhCN22lJV79xh7Vai+5ZWSxCDxUOMYAKej3w9SprbIzz0KtdDc1t+CdX45jynLTjdzULWatPohotRmzpaUN728+KTzV+hKtufYj1yTnOHw5aOCD2VwOEs5JQ0BM0zR9MhFJkmmY3Z7Y0EYBxsDr1e+HqYHB0I+n7MNE1CvvKDwxB/PWHDTIu6wvsVIRXbTdCe0dklPtemAspi7fj1l6hmLoex1j7cfwktmrDiAkVtLBWlvbhL7x+LKhDx4EBjmOR0iCIAA6/djlSQGGfngY2MvUwJDDvNMrJPPkCc8IKabJxH6LY24q8YxNLW3CXEuwGIuQTXEehrC889MxVNU0iPtmeMxcxmYN0VAwe80hMPjwin+0OI9/fp0IMlSAMUDy+v0wNTBopv3riSjUtkkBexZn/IZllrwfUVLpfvErW2Tll4kXEByTjpmrLDFriAR2v+sY+/8Um+j9333KWwoz7+/DZke3IVvuZGBcVQMjuLBBZAEqwNAPDwN7mRoYzHv47GoCenv70d/Xi68OXDKprC8celuc0K1WZnec8hEEZ2xCNsX5GLk7+9ODSMwsEt8nJbsYz6y3GjRUXdc9yMC44idxjMCCegUYA9Q+hB+mBga93Zs8JY9sW3sn/vbDkSFHluoiAF3bOOpSqZdGXaCzoxPLfjs7Il5uXfenzzZa0zYcuiYSshjXtdnRXVjT9DmW+xAY9LC7BErBkr65io4xBDjc3tXUwGCr4F03MsQFaxtb8eyXtgabIu9HHCJob8UB+IQni+slZRWL+KShyun3u44p/897nbHytiKeml0swj2YC6LPdYXyvcoSAerYKfesGkX5vk3u+v8yNTDo8WbGHKfy6gY894UpgXEIM1ZZIjlX0i/O+d4aVgySPoRoin0YGLjh0FV1Qms/vrW5rncUrgDG6oOIScsX7/xCimKu1R8NGnuaAxiWwVL8jqmBQfv9uxuPoq6+WTzhFkdXk+ozxgQFswSnrmSC1QFMomn504NIySkRz3HpRowImydHvN81yXHo8S+qkCKYHWJKFD+GBr3r/XM8AYN2/y8sL4siCf3ox4dbTt8RXsHRlARIAFGWZzqsPDORidu5z/2Izxj/53WYaciMPIZxPLfeCm//dBQfbDklQleeXXsQ9pcDxXcsrajBK9/a44lV90+mYpbfku2nwaokzDxhICHrXylWKb0hIe1oTmCUVTXgmc8Pm0zHIJH/esxLPFhLewde+/GoIHaCgd5lmm2f+dwG8/YmwqwAACAASURBVH85LhR0J59bOOsbjbO+t7D/rB8W/HICT6zYbzLjAAHF4EY69J5YeQBvbzwK68uB8IhIQ2JGESqr6tDU1IyKqjpk5JaioLRa/TX7scHqml7RAhTDNtq7CpNvQ0cPVvlk4wMzZvQpsVJ6xkqxLM5edVRtbWMLXvrafkjmx6GMziyGsPtcgCAmRqu+sMEOf/xkN5753Bo/ObjDNSgOOUUV6OiU4pLUVDewaGpuxTmvCFG0wFQOwSms/PG5jSjSwFwMfacDZ3wFMO4XJkLuc/haiDhtRlULlnpmmrXUpwIMPYFBc+0vnlJ2WW9PD1bvOmdwrvP9QPLI4j2wuhoqiCIluwhvfOeALcc8wSIE2lNTSzuKqxpQXN2I0upGdHXerhgSlZSDV762EzL//a45lP9TdHr2cxsE3EobuB2Cw+1mPH60c8NSi8tYe/A61hy8Bouz/nC5EY3mVikFeLOD2305Bi1XT645iNBYyQronV2LBWYuzKYAQ09gsN7ssvOxYOIMp23HPGBIDND9CFDoDyv3wy0oXlynrKoOuYXlAwTI2lG3knPFaLr5iLsofsb8BeoaTzDLb/MJXA+KG9g/IDIV86iTGMljzjgtlgK6HnC7GINbcAJe+9Ze5IS/+Z0D3t14BNNX7MfDi/fiwU9246NfT6KlWSqVs9nB9b7AeGLVAbz6nSOqaqQcD9u4Mrx5Pc1s+gX1GAUYegJjnr0Kfz4agbKmDkF0dtdDTGJCpTVm7pqDCIq6PRrzgh0dnWAQ4dKd5zBv7SERp/UI9Y3VB/H+r6ewbO8lLNl9ASyg9vji3XB0CRsAx88ObnqbSe8HXFqamKUnc6YLPlGYtHQvNtq7ITm3FOQcjAKOTcsX4uZDi/bgU4uL6FV78D+3vHJfYDDeatWeC+jv70dfXz92qqR6U+ZSvBVg6AkK1oiVgghVSCyRRrHzN2Lx8KK9Rrf8aAOjr79fVAdcvvOcCOFmqAiVcBIwucR3h53R0S6BlUioqW3AKXcV/vy5NaKTpaobN6PTMedTyyEH8mmDhGbWSUstcPCCZGWiLsOyOtRjStRmVRmNhSWVeHGDrSgy95X1dZF92Nvbi/lbnO4LDD4Xn4ETa/mu9802a5KSAowhAINh5/PswuCVJNnkQ+KyMMsE2XsyMG6q5ffolFyRA01Llbb9n5abbw67yLQ4sGxvbRP1Y3ec9pOIq7YRr34//BAWinkUo9zUoppvRCqeWE7z8AGQE6TllqK1uVWIegu3O4no2EcWW+AHRw9xH6yiyCqHNMVqg05ep6jGrMhbqZJjL6qkURR/NnfpTkWU0hMcTFSaaROC/UFSdZCSsmr8x/eOwowqf1RjLGXi8wxJFMQUdCsVs1frHu2575NrD+G4ayha28g1+sHUV8ZYPbxwDzbII3VfH97bfOqeBKnPvRO0cyjmqUF72i8Wf1y4W5huycme/8JG5I8wYFAmfhZ+3nXGXzxLYUkVXv3W4Z5mZJYuZTWUZrVOcjSuzKyZe7K4pgBDT2BQnGK81GeujF/qR3dXFz7a5oTJyw1P+tdFjCR2Kq7XbkjKbVxanrAAyeKT5jH0JVCpZvlOJjRtPeqON344IohS6AI7TqOtVapmsv2ox31FGM1z6/pNYDy51gqRiVJojJN/LB5cuHtg9Jfr4MqKvggEXLkfF7wjBTCS0gsEeLifrvNzG0PWfzvlK/Zv7+rBVzdywc5NMsGaa6kAYwjAYOj54ouxaFHnZHxr4yzk/ME+siHbZWBc9Y8RxHEvYMjnJwFOXSmVBaUplSIXifO5z6yQU1wpznPOJ0qEldzPfyCfU9dScLPVlvAMkSxmfpGpmLGCGYW6vexCLFx7CMHR6eIefMNTMGPl/kF1He7PcPWweCkDMLG8GYs8RqZVmQKMIQDjSftwvHREhbQyKYvvgneEkKMHIwxdxKXPNjq37Jwlq5I+wNB1ToKF4k1QrCT6+UalCxAPBxg8luVy9quVb7Yp+Ms39oOKRuRyT623RkJ6gQDGEfdIUV9X1/1yG0NFmP3Hyo6czqVUgm3OzMUlNK+jAGMIwKA4NdUqBG6pkl+Bed/MGTA2MB5ctAf7LwcL4kjNLhKlK+8lfugiNHINyvnOakX5Vnqh8HNoK/C6jr3XNpqINxxmqAbQ3t6B9zadHNTRSWCwL0Z+SZXY3+pKsGguM9j5H1uyD/vOSvpId28ftobkj4h+QYAowBgiMNhCzDFMqlxRWF6LZ9ZbQ98cg8EIQns7bf+WV6RwCNZoYorrUCsdcnSfumI/TrpJnCevuAovfXl42GEsNM1+tOUUpFZiwK6T3qJVgS5OJANDFufYFIddl7Sfl+tCTGP+RpzE4XJr2/CJe4YgUM2R3Fy/FWAMERj0gH91PUk4n5h2umbvBaOHhGtyjPTcYrxAgh5iCVASKrMA94jca6CuvgkfbDo+7PAQQcCrDiBSXfE8KCZD0l106BkExtOf2SApS0pxtXcNH7SABAvIzd98Ei0tkof8enrViJhpZeApwBgiMObaqfDaySjUtkhOtd9O+xrV0ScU6WX7cM7nlhA/YlJzRV4CiUzXSHuvbQTGp3svifOQ4BZvdxpU7LnXebT/x9D2I84SR2O9WlZGZA6G9n5Upuet07Bi+cbgEXaL0qqsQvFuyvJ9sL4kOQ4ZdvPzzZEToxRRaoigEB5wexWePxKOuAKpriqTb6Yuu9v5pv3x9V0XlpnVlvBTSWmtLIvPEBFu1/cc8n6ioML2sxIwmluxaNtpowCDDr0Pfj054HE/dCFAmFm1xSlxz2sO4kaElCt/IyJVOEW1K50IAK21QoY6SDK2rEk0jvnIw3z5FzKnkJcKxxgiOGRH38koydKSQx1gg61oyCgT5HCWJBL2wVPFSSZLBuvRr2GIgk9gfGACYPAemRNyQx3PlZlXimc/s7lLf5HFLucAyfQcI7z4VgMhLfJ7Eh586+sDrdPsYkrxthmrDspg0FwqwBgiMIRlyiYEP3qliu68XV3deOvnEwOeXvljG7qkyEQii1fnOtNsO5jCer9rUJRauuuC0TkGrytCPUQiEU/fj+9srovaUXQ6yvdFDsLYKqtLUtnO7PxSvLzB7g7zLkt7TluxH97hElepbunEaiYluY8ctyBAFGAYAIzZ9mFY4HQLtepI218d3YftVZaJiWbZ57+0BUdhThYXg0Arlfz/oSwJjF8d3MR5GhqaRfi3HKoxlPPo2pcAfuELG2QXqE3XSTmYvfpukY+g3qiOlaqtaxQdbJl6K5+T9/PRr6cGfBfuWdWiUczHZiz5r8kp5N8KMAwABsWp2bahCMuV9Az3kETRYUhbxpY//lCW9Iu8uMEOhep00J1OfgZxDNkqZXPhhgAGe028usHuLnFnKPemvS/7eO9SW72YJ/LFwat3VRykor7e8oooUtfT04P3taJrmSt+3FlKyqLvYnNIAd4ZYTFK4RgGgIKiFOcZh0NxIkKKAKUD68UvjZMDTmC8/I3DQJeibSe9DQOGsPTsx1V1QlFsRpGIjDVEV9EGhLxOTzU936WVUiWP8MRs0flJU7lmzNbKPefR3SkVpv74t3MD5m0+K03ReWoHYFJFs9QgxsN8DWJkDqG9VDiGgeBg3NSyywnCn9Hf24t1By4bJRmIsU5/+c4RNepeez87ehhUI1d4vpfvR6Q6fNs9NGnYISEyIDSXDBGRzazkGl8duioSuGRdg8BYpQMY5Ggs7LDnjBQwyFIgllHFZi2Row0GzXUFGAYCY469Cq+fiEJJjeSQsr0WjMlLabYdullVk9BkYNQ1SAUGmBlHcUNzH31+06/AuCOGoXM6dN5/YKTW53h995m26iBe+soWeUUV4jrRqfkiFF72u2hzjA+3nxX6mNClRLiIFOSYWtmChe4seDDy3IIAUYBhIDCYuDTncCg8UiTlMzGjUDizZILQl7C09yMwXvnWEZXqhvC/HjdMlKLS+4ta6aXl7L3NJ41mOdO+Z478v52Qyv0QHcxFp/7B/ahjrN1/GX29Uq78gq1SBh8TryzOSolUzFJkxyRz9r/Q5A66fivAMBAY1DOmWIdgr7rDEgs9v/vz8WEnLhFYz31ujcR0SX855Rk5ZE5EP8P0VQcQeEsK907KLMSzn1nf5T/QJnBD1zn6z1trNVDdnH2/qXNNW30Qjy65bZUSQYebT+HhxRZCt8hVh8Tn1rVh4QjGRSnAGAYIZKVbcznHLgwLzkSjoV2q73TwYsCwCyRQOZ66bB8u+Erl7xPS8/H0+rudYvciYmEC3Xoa7R1SKR2rS4FCnjeG1Wyw61LX+N7mOpjXzYmF38i1WLnkjEe42MZqJy9/bSfywPc4qXULAA5xpaNGt5BBonCMYYDlaYdwzLYLQ3iuVGkvLCEbs1YPPwydRRa2nGDjFaCzswsLtzkNSQxiFtx5nyhxfH1Ti6hYyESmwYjaGNvJpWatskSIuhYULVV/+dpO5KvEpUpFGa4GxuHRRXtERmKB2hJVUN+GZZ6ZZq0yKBP/vZYKMIYBDNlsu8NfKgzGQL0Fv54C85aHQ2wUTf7yjQOK1ZU3rgXFi9FXnxGfSvdfv3VAeaVUzYQ1n9i3b7h5GPo8D3WNtfsvgf4KToevBOH17xxAMZPTnjN++F/zt8NGXcuW2xzjSs3aEOZeYND8nwKMYQKDZtsPzsWguU36+NuOe2HSsqFbkbQJ7/El+3DURXJ8NYoAQCehyGrvp70+eZkFdqqdblR4V+w+j8kGNIfUPq8+6xQD2VBSrlBIHcI1QBIJ+Qxv/OCI175xGGhRnFLZgsUe5i29qUn89/qtAGOYwKB1aq5tKIKypSy1yKScu5xc+hCV9j6MYGUVkmq1dSo+vUC062I4hewj0D5GJEytOYiEzEIxQqsSsgetMKJ9rLHWGbi4ePsZUSBOFExT6xzXAmLx8Ce7cFndU6+zuw/bQ0eHl1sXQBRgDBMYFKem2oTigLqsDhXehVuNE95NUyerCMoKLb3YrGKuK/eBhE09Ysl2J3R1SaLM7tM+BnnNhwMSOSiQdWzlqa29Q9STWrD5xEBrZt/sWrznkg5z14vSBQJd2xRgGAEYdPa97RSNRrUVyME5TJgph0NgPJaiCa06F30lRZqEdiUgFk+y2fxSi7tC0R9ZdLtCeGNLG9768egdkazDvR99jydA//qdA/JKJOddZXU9Ptx0DKwqwqmypRPrfXPwvhnL+usi/nttU4BhBGBQnHrSLgw3MyVCYAvi579gOurtKFJ9iUp7Pzr82FnIS5UkwrtJWDGp+Vi//5II1568bJ/waJO7zFp9ANEpkgUoIjFHlKLRjFvSPrcp1+ng+8ryMjrVMVL0jAulvL8fjnFleMt5ZKp/3AsMmv9TgGEEYFCcmmYTgp+90kSOBmXrb6yuGaUY29x11mBljle/tgM7EslTX08PwuIyse24J+ZvOY1Xv7XHZ5aXhWzPfTYf9cS/fbhTcAxjBg7qCyZawejc23fuBrq7JdGO98VaUSxycK/QD4acfyT2yRCZfB+6Z5hd5FKAYSRgzLVX4ZWjEciulGKTbsZkiCodxoidemqdFTxCEkRhZIKupE6Kz5JB0tPdjarqOtSr46JYbPlXR1d8fegKXmfb5ZUHzC5SUQlnDVpyjTr1ffX29WN3eBH+41qqCP941yVdlMd5zzVdOPjedk4XptsPXDOw0CMTS72ysMw7SyzZTYnEqjmqm/K3AgwjAYNcg12XTkRKoRzt7Z2ibCZ7V+g7ymrvR38GC0dfVVtyCIRL8cV4/kgEvnNLxo3MStQ1dwjAyCDhsrunF13qbkuNLe1wu5kgOA7L6w9m0dK+tqHr9LUQiPM3nUBofPaAT0O+v6LGDlxOrcTOiCL8GlKAjUH5Yt4aWoBdEUU4HFsGKubJFc2obO1CQ2cvKlo6cSaxHB+Tc5gJHAowjAgMesE/PBeDxlbJp3HJ75aIczJElKEnecqyfXC8zsJrbM8I+KeX4yl7Feg7YT4Ik6U+PheDdc5JWOeajLAcudedRIYtotCz9Ds9p0RU86AZ2FCi1+c4Kt4fbD6JanXTF16ddaWCbqWjvulOTtffD7R19qK1swe9vX3SjWr/7ZO2d3X1YmNQntkKsCnAMCIwnnJQYYZNCC7ESHWUWGpy0Q4Wfh4a16D4xTKdO056D0SlRufX4OUjUgjKs+p7ZkjKLLswPHowGH9yUCGtVCodyuvuPeMn2owdcQkFo2s5sXfftBUHYCqFnCX8mb8tW5+aWtpg4eQroo5ZeHr+5hM4eCEAgTEZqKmpR2fH7b4eMh66OjtRUl6NCzficNI9DDU1DeJfTe3d+OZGLua7mafAswIMIwKD4hRH8w/PRqNRXfjZJzxZ1EzSV9eQE3jY3ZRxUpwyyhrx9skocW5eQ3OeaReGP9mHIUztYOzv68WO456ifhOrBrLVl/Cg9/eLkpqfbDk17AjgwTjH1FWWePcn9idvEvd9wjUMDy/cLdJphel5paVoP0bxkLWoPth6WnSBWm5xGZzZEWrB1tN4dr0Vnv/cGgGMDiZbAXA1rUrKBTdTdp8CDC1C0yQ6Q39PtwmBk7q8TmdnN9ZaXNQ72YhmzuW/nUV9o6TEl9e3YuG5GLA5pnw/NA8TgFOtQ/DSkXB4JUuFE0hAx1zDhAhGUYz6BEWbN753QGOz1A7A8py/XqElgxH/vbbTZMy8b/T1iszGD7ac1skteW+8LxZrYPckPvODC/fgDx/uFFVFvrW5PlClnc/km1OLj93MW/VcAYYJgMFw9P84EYmCGikLLymzCM+ut75v7SmKXBxx2WCFU1NbF9ZeSxR5Hzwn9YrJ1iF4Sq3L/OqTjsSiOrEv/zjfjBfdjTSTpajAs+1wZZ00ih9zVekN0nuBQNf/WB/q28PO4n7ofX/pW0c8tGiv8OfwPu6YV1mKeyWYGA3M7rJfW18H88ZlnaqtqxdOiRWizdgCMzsDFWCYABgc2afahGC7r5QoREphTzkSgC75XozsK9g32xqMieLU3d2LTd5peNjypnAevn4qCr/5peNCfDEi82vRQGuUxsSq5mxayQIFmkTLnIgfDt/Ok2DTSkNSZTXPOdjv28BgU8k+HHcLw/IdZ/Di1/Z4/ks7vPCVND//lR04f7L1NLYe8cCVwDjkq5OW5EdKrWzG1pACvOucfk+fh6lMtgowTAQMKuL0hnupWwbQ6/u9nauoc6sNDooVM1ZbwidCCpmgXG0bkoPHD97EgrMx8EopQ73a0iUTDpfshBqbXoAtRz2Fz4Beck1zLNNH3/v56EApHh7DpCU57XQwAjd0O6/38xFPzVtEb08vahpawPI9DKOX5+q6JvRoOP7EQf39yKltg31sqWgYM5KxVAowTAQMcg1WRv/r8UjkVkpiTGt7B35kcYPFe0D/Bkd3EhNjn9xCGfIhTVdjCzHdOhjvnIlGRaPURIX/aW5pQ3p+OXzDk7HrlA8Wbj+Lp9fRw3xn3BRFKRZpW7LDCWwjoDlZnr9hMmAwwWqH0+3+Fp09g5hgNW6orbsXaVUtuJhSgc2hBVjhlSWcffR2m4ob6HNeBRgmBAbBQb1gxaU4lNZJ+gZNpxf9orFi1zm8+b0DvrW+NhDfRHoJyqjAcw5hQq84qu7DwXYDTp4ReO1rO1HYjaZPVgcnuAiCueukgENaocgNKFJtO+E1kPfQ2dWDHrWfYOcJT3GcoVxhsOMYAsIqKdRhOKVVNmNbcD6OJZTBObt2YL6SUY3TSRU4Gl8Gq6gSfB+QK7L35qu93yNdmlMGjQIMEwOD4GBTyyXnY5BTLvkZSDg9XV3qUAnJHMltqtxqvHwsQlicZtmGYoeso/T3g92bvjvsjLd+OoYZKw8IKw45BWdyBxZ+/tuPR7H5iAfi1YUUeE6WEd3olQp6nDmxZCdL2gxG4IZup6WJvcT9w6Uq7eFFDZjvnI6/XU+7Y37zepoIIGT4BysOMsKWRDjaws8VYJgBGATHzMNhePNkFE5HFaBGQ3Hu7QeKaltgH5aLPx+RxC/uP89BhacdVGJ/qL2/JOzGxmYEx2XhuEcEjrtL8zH3CATGZKKmVnKGCQQAuJVfi0/OxQiuVdYi+US+s7qq04RqKCDk48i5WIkkIUMyHjhn1Y76CFqZO+haKsAwEzBI7PRSzz4cir+ciMK6awnY4Z2Gjy/E4eXjkWI7AxFlrzaXT9qrMMc2VMRFRRfUorPzdpSqTPzay57uXsQW1mGrTxr+pOZWzzhGQAbGD3auJgEGTbEvfGWLglLJ1Hw6uRLkDrqIbixsU4BhRmAQHCIV1k4lFHMp3ikMBAQLRfP/2jP3Z98/hnwsvxyP7f6Z8EkuQ0xBLTIrm8ScUtqAgLRy2IbmYuXVBDzvoBLimwCWvQrvnLqFerUn/peTN8AcDnmkN9aSFrEXv3ZAfaOkSznGl4Hi0lgAga57VIChgxi1iXM0rFO0IpDoVZ9nF4ZnHFR47ki4NBNw9irM4v8PhwoxTL7n2XYqfHI2Gi3q2lc7L4UJ77KxACGfh7no728+hZ4edV2pyKJRVytKFwAG26YAY4wAQyZ0LslFCBTNmdt0cR0C4+Mz0Whul3SM3ZdVJgEGvfa/2LkIyY5m2l9u5mO+68iaXAcjen22K8AYg8DQBMn9fj/poMKrxyNR1SKFwu9yiZZ0jGEWn5Y5hbxkzBN9JJxq2nuw2jtrxLsi6QOAwfZRgDHOgUGuIpTvZnXRM5doqUGlkYFB/8kpzwgBjNz6dtBBR+IajPBG+3YFGBMAGLRwFdZLHvRDLpFgnVl5pDfWkjFZ14MTBTDiy5tFrra5su1MATIFGBMEGLnqSN8jXjGiwLOxAMHz0OvNBKXQhFwBjKC8OuHNHm1Ou6EASAHGBAFGdrVkRj3tF2eUmleawGLM1398Z48itQ/jalol3ncdvcXU9AGIAoxxDgxG+dK0m1Ai5W1cCkoSabOahD3c37RIfbz1NJqbJfBZRZeM6iqDCjDGOdHfzyIlm3bp45BTX53DUkTo+3DBoHk8LVKrLC4BvczcA35hHsUo6LyqDwAG20fhGOMcPPRviLyQZCn8/GZcFqYt3w8WLtAk7uH8Zvn/L60lH0ZLRw++Dcgb0z4MgkUBxjgHBiuJzLENw3l1DnpyZhGe/8zaaP2+WbyBIfDWFwOF4l3a0IF1vtkiHXWw0XgsbFeAMd6BISJ7Q3HwJnOpgfLKWlGhg1mDw+ES8rHMRmT7Ae9QyVSbWNEs+undqwSnAgzxKfCAtDDt313BuZh5OFRnWIQ+svh43meadQi+cJfSZtva2vHxNidMXmGcnAxRjWSdFeLV4eZeuXVjOqpWBq3CMcY5xyDgGXy48lqCVO2vvx/L914UZWvkUX84S3ILFp4uKK8VI9+FlMoxHVWrAGMCAELmgswD+fh8DOrVCVIbbJyN5v1muDn7cMjlQG1vleBd17Ebbq4AYwIBg41tXj8egZwKKbXW9nKg0RpWskXBlmMeohZUV28/fgjMw/tjOKpWAcYEAgbD0VlT119dxtP1Zhymrxx+22W2FWMBBC+VlOedU9MqyvePdIUPmbiHs1R0jAkCkCnWIaJYGxWBtLwyzF1zEKKAwVrD/Rl07K3cfQ6trVKA4tmkijHv8ZbBpABjggBjhm0YNnlKlqne7h51PV3DU1zZIJM1rWJTpX4g1S1doq/eWE5OkkHBpQKMCQIM5n+zNE++OspWlcAefZYGdVpi/Sp2j72k0dDmREK5KIejSVxj+bcCjAkCDKmXhgr7VVJ5G4pUJ1xDMWWZxV31bnWZbxlazhI5k5buEwWqXYITBhxToQX16mrkYzcxSRvECjAmCDBoumXc1JuXEuGfJ0Xa9vX24pR7GJ5abyX6gVM80uzjwZI4LM5GyxOVbP7vq0PXkJl3u+1AdEkjlnlljurWxNpEr8+6AowJBAyC441LicJyFFxQPzDis8L6Jkd3vPXjESEiUalmRfQ/f3lYKNcbDrvA5kowUrKLBxq5sPuZf04tlnhkmq3LkT4Ebax9xg0wdiohIXfVpJIdfJrLd64k4QP3TCz2zMSN3DrR4EVGSFV1PaJS8+EdkQK/W+mieUtn+53tBrhvXl0bDkQWi/RVc/etMBbh3+884wYYe0KUWClNAAz2m8BY7JklNWNxTcee8CLEljWhe7DmkABYDqeiqQOqogYculWM5Z5ZQtEe64GC9wIHgcHnS6mVOlHJg4cxl2YJIjwWU4zZtmFKEOF9REMCY5FnlqjewZxsFlZmQ/pvAvNwKKoE7hk1op3wtdQqHIktw6bQAmwIyBOh5B+6Zog4qPHgwLsXKPg/9hVf6ZONfHUxbGMCQj6XWYDhk1UlAcPh7jKXg42eE3G7JjBk4iChswy/rpnNW+iboMjEUVQ+ZrwvmbO+ITAPteoKjjIxG3NpFmBk17Ti+aMRohDyRCR4fZ9ZFzA0iZxcRJ41t0+03+84p2NXZDF6+263aTAmKHguswCjt78f3/ukY5pNiF5KqL6ENN72ux8wJhoAdD0v62GRY/hpWO6MDQqzAYMX8s+pxmw7FjVWxKnBAK0A4/7iIEGxzj8XjZ1SgWpTgMKswOjq7cMGrzRRAn8wwpjo2xVg3BsY5BbvuKTBI/d2m+gxDww+AG3sfz11C7MOhykilQ4LlQKMewPjbec07IkqQTdbXZl4MouOofkM7hmVYMP4uXYsaKyIVZrvQAHG4MBgLaz1/rkoURfA1qQpU/w2OzD4EOeTygQw5rLJigKOgXegAEM3MAiKtf65yFIXvzYFELTPOSLAEOBIJDjCRFsvBRwS51SAcScwhJPTmaDIQVb93eEv2sRszPURAwYfwiW9UjSDZEthBRzhUIBxGxh0WNLz/1NIAbLNyClkcI0oMHgTqZXNWHE9CU9Yh0x4vUMBhgQMevPp1beLL0dTl2nNsjIQtJcjDgzeUFNXD/aH5Yl2wdNtQiGqgE9A3WOiA+NDNyneG6y5VgAAA41JREFUa61fDrzzGF2sTa7mWx8VwJAfN660EetckzHTNmxCVi6cqMAQYpNzushFcUgoH+h7LtPFSCxHFTD4Anp6+3E1pQIfXYwX7X9n2YZNGA4y0YDxkbskMtGbvS28CInVrSOBAZ3XHHXAkO+yvr0bl5LL8eHFOMw8HCZKWTI3ejwr6RMFGOQQNMEycniLqggRZc3o6uuTP/2oWI5aYMhvp7mrB9dTK7D4SqJwDLLWKx2E4xEg4xkYNL2yCiIBwdCO3yIkQDDAdDROox4Y8ktr7uxBcH4tfvDJECZeWrEoZrElsK7m8mMROOMNGAQDuQItTATEZwG5OJJUgfSaNnSbMGRcppnhLMcMMDQfMqO6Fcdji7HoSoLgHOQitGbNsx/bYSbjBRjMsGPOBM2uzF/fqiqCb349akyYWKRJH8b4PSaBIT94a1cvEsubYBNZgBXXE/HskXDhDyEnoVd9rJl9xyowqEQzi3C+S7oAxHLvbPwWWYyrWbUoaOwAC0qPtWlMA0PzZXf29CKurBFHo4uwxiUFr5yIEhxkilWwMP0SJKNd5BorwJBFJIpHbztLOsOnfjki8tU7vx45DeYN39CkA2P9HjfA0HwhTHksaWyHR2YV9obkYtm1RCFysavTTNtQARQWZxhtotdoBIYMAppUpRxzabnUKwu/qgrhlFqFyPJm1HX0sJzVuJnGJTC0v05TZw8yqlvgnVUFi5BcEYLy1tkYPHckAlOtQ8RM0FD8IlgEdxkB0/BIAYPET0sRzagUi2Tr0VvX00S80hKvLHxxIxc7IopxIb0a4WXNKGzqREfP6DKxan/34axPCGDoekEVLZ1QFdbjTEIpdt7MEX3w3joTI/QUgmO2XZhQ6JmnTtBwncWXTelLMQcwSPxUjmXif8c5TXACudLIIo9MfBOUh723SnEyuRI+efXC8dbY2aPrNY7bbRMWGNpflKm3NW1dyKtvQ1BeLU7FlWBLQJYAzNKrCXj7bAxePB4pnI3kMrSCUcmnT4WAMYaib0xgcOSXAcDSO4xUJQdgPBJrMn0ZkIdNYYXYHVWMY0mV8MyrR0JVK8paOtHc1WvSChza7340rivA0OOrEDRVLZ3Irm1FTGkjvLKqBHAsQnPxo28Gll9LxN+cYoRPZTj+E2MAg2LRQs9MUXdpi6oQNvFlOJVSBY+8OkSVNSOjrh2lLV1o6OzBKHcl6PFlTLfL/w+zKGE0muo18wAAAABJRU5ErkJggg==;" vertex="1" parent="1">
          <mxGeometry x="125.5" y="380" width="69" height="69" as="geometry" />
        </mxCell>
        <mxCell id="benL4QOIB2VxET3UyS8y-10" value="" style="shape=image;verticalLabelPosition=bottom;labelBackgroundColor=#ffffff;verticalAlign=top;aspect=fixed;imageAspect=0;image=data:image/png,iVBORw0KGgoAAAANSUhEUgAAASEAAACuCAYAAAB5jLuiAAAgAElEQVR4Ae2dwctsSXnG7x/gQhCCu1ka4kZxEcwmBAS5uUtRkoWJLiIxDsrEQS4i6J0EhwFBvEbjh8PVC6IIE5nFzZDFJGFGIgYnEMMMKIioG4MLmU0gWXX49fTT5/nq1Ok+p79zus/pfgqaqq5Tp6re533f57xVp7+vbq2SgkAQCAInRODWCcfO0EEgCASBVUgoRhAEgsBJEQgJnRT+DB4EgkBIKDYQBILASREICZ0U/sMH/82vfrv67X+/fngHC77zJ6/8bMGzz9RLBEJCJSIz+v6///N/q/948b9Wf/sn91el473y4murJ9/5xdXXP/m9FWXanlOCZJ//+39affqPn2mJdfcP7q/u3blaPfraS6ufv/bL1vVULAuBkNAM9fWfL7+6+vrdb6/+4rG7qw+95cnVn976eJWEPv2Hf7e6d/tqRc7nW/cerX788k9nKFG/KRHZ/eODf14TDzL/+e98cvXXv/83rZuRmc9n/ugrKwjp6fc/WL3w7PdXEFfS8hAICc1EZzzRHz713Jp4PvimJ9b5X/7ep1d8+F6LhNYkdOdqHRXIManDMSGk8p6ZiHptGkRw//oP/7aO9kQ8f/W7n1nLjeydJCS5yQtC+pdv/3sI6RrK8/4SEjqhfrTkENEQ+Yh4yPW9Fwl1OCWENLdli5aZz/zZV9dRHhGPEw9y63svEuqQ/QsffLiCkC517+yEpj1o6JDQILhu3lhLjrvveXod4eCAJfFAOlz/9jPPr51xMAl1OOUply0QD8vM+48/2C4zRTTITxksICDaqN1gEqrITnR4/yPfOcu9s5tb5Ol7CAkdQQe+5GCPp3zyK+r5+Ds+u/rG5757bbOVtjcioYpTEh0dK0pgScj+FjIih6K7knghXZZlYEVibwjZb0RCkn2zhwQZ8Xn2U99b9N7ZEUz2qEOEhCaEmzdbPNFxPiceHFHkQs6HtrWkduX+Dm/EcCjeEh30sX0UooQxly3sb3kUJ+Ih2qEMEYMJ3yEfEY/Lz5sxZB+FhBwjIyTtnS15M98xW2o5JDSR5nBCNlpxOn14+hPtsBeCk+GskMn7bn20cxN5MhIqHJM3Tbzyv+myBUJRtIfczF/LLl63E+lBuCxLwQISqqXJSKiQm01tyBxCQmcl2dfmlrpxEQgJjYvntjecCBLiSY5x6/sPXvjRtg0FHPLkJFQ4Jk4JKfEbJKKEWqRyTQj7QltIB9n5fRNLLIimFtEoErLbt8WjkJDLfad55Z/fIG3VcJRCSGgimCEe9jWU2JSFbGZPQnLMzbKF6IilWt8ECRHx+RspIqAlkNB2WbtZqn7ibV8YRMB9MUq76wiEhK7jMdo3SMgJZ3EktCEjIqKhJMQyy9PiSGgjO0u0IVGgy5xyfwRCQv2xGtQyJNTAFRJqsEipjUBIqI3JKDUhoQbGkFCDRUptBEJCbUxGqQkJNTCGhBosUmojEBJqYzJKTUiogTEk1GCRUhuBkFAbk1FqQkINjCGhBouU2giEhNqYjFITEmpgDAk1WKTURiAk1MZklJqQUANjSKjBIqU2AiGhNiaj1ISEGhhDQg0WKbURCAm1MRmlJiTUwBgSarBIqY1ASKiNySg1IaEGxpBQg0VKbQRCQm1MRqkJCTUwhoQaLFJqIxASamMySk1IqIExJNRgkVIbgZBQG5NRakJCDYwhoQaLlNoIhITamIxSExJqYAwJNVik1EYgJNTGZJSakFADY0iowSKlNgIhoTYmo9SEhBoYQ0INFim1EQgJtTEZpSYk1MAYEmqwSKmNQEiojckoNSGhBsaQUINFSm0EQkJtTEapCQk1MIaEGixSaiMQEmpjMkpNSKiBMSTUYJFSG4GQUBuTUWrOhYT4Z+8X+Y/ub1+tctrGKK6wt5OQ0F6IDmsACXF2ltKiTtvYHAjI+WOPvvbSteN7JE9XriN//BDBJUVCnC4C8XJMNgdTJk2PQEhoIox12CGHAHLiKuexU+YwQE+zOfzQjoW+yVntIiFk5XBDyHj2hx/evloTD6exQrq/+dVvXUUpT4xASGgigEVCOgKanEMByYkMdPa8IiSPHHxKkx8DvXFAnvxjnEcPCfnxz5Ib2SGlh089t42sTnoC60ik67pK+TAEQkKH4dbrLoiGKAgi4YMjyhk/+KYn1qeSclQyZcioliYhoc1yi6XHt+49Wv38tV/Whj64jtNXIWFOXUU2JyLKfJAbLGjjp7VqUO5H9trJrUQs29NSdWJsn3xzqizLraff/2AU0tV8kx+OQEjocOx634mTcSQ0J5OWTili+tBbnlxHSCxfWLLJMcckoXK/4xinixLhsRRFPmQh+hERS3Ywuf/4gzVxiYzBazQS2pAu5APpdkWdvRWahqMiEBIaFc79nckpcTx3SjkmUQL17KmwbKOetqXjsGnKxvHeiGCz3IKATrnfAeFBrsiEbB4dIaPkFknTDsI6OBKy5db9j3xnvcl8DNLdbwFpUSIQEioROdJ3OSXLkppTKko4iITMAb/+ye+tfvzyT48kVb9h2Pgl4tsVGUr+QSRkyy3I+ZSk2w+JtAKBkNAM7ACn7NpD6U1C5oBL2u9g+cVSjOiPj8hHeS8S2pAukeEcSXcGJjbrKYSEZqaemlPuXI4Vm8zlsm1m4nVOhz0wlmuQjpZkEFEnCRnpEvWM8Wavc3K5MCkCIaFJ4T28cy3XcML33fpodU+IX/TqR3XntN/B2zpe5eu3RiWKRDxPvvOL2WQugVno95DQAMVp2VS+0qZ+ilfdmhrjMYanWp1fH7MMwf3ghR+t3/CV/bK3M+Wek35P5eOyKX8M0gVj5NObSs0BebPfJDRunoeE9mCoZQJva3jNTFRSIyGezPr9yQvPfr9FGnuGmd1lnFxLQ95cEZV843Pfbc2T/Sfk5rc75/D6G7Ln5wH8yptlIXLXSEj6HutHni1gL6giJFRRNg7I/gQ/NCx/34Jh1kho7Yj8YM7eTC3RQPUTAl6P+94MRMQSqUzIqB8P6ndIENOSIgVIBuLhQYPMvkGO/msktP15hOmbTfFjRWmlHpb8PSRk2iP0502NDFE/rNObGvK9JOS/3F2IgUI8EExJPC53HxLa/mbJ5J4rEfuDhmgH4qnpey8JFfqGnPSjyCmXqWa2iy9ePAmx5NAfl2JwOJs7H4aJgUI+g0moYqCE8foD0WPsa3RZqPY7dhGPyz2IhAq5FSFBSP5r8K65TVUP3nrQdBEPciI3H/Q9iIQKuZ2QlvrWcipdeL8XSUL7nvxOPPyYEMdhr0AOu3M55obYVT7Ra3Vk2PV7JJwOJ8RB2RNhicJShGUKTrlvObaNhPbIjXMea+kC8fCg+coT31zLVnvQiHh40BAJQ1TYCDIfTEKGgUiYZSvL1NJ+3CEvsXwxJKQnf/k7FEU9EIw+7AXhgP5GCmPGWActx8wQOx1U/0Zi8wvfsQ20tt+BnC43cvEdsoGkyqf2aCQkPDa/8YGMcFA2tMdeuiADG+ldv8pGZukb4ikjNPSArscgIde9CGmuy9RTkOBFkBCOxVstDE8fPfX1ZCTigXyIAmpEgDNz7+gkZI4pA2Vjd4w3bEQAyM0TvZQbOaiHYHBW5OY1fC2NTkKSeZNLbiIFXonX8K/Nq6tOepTMIl1FNtSzBEfnlGvL4qlIaEtItm/G37ZBgrV5dMl4TvUXQ0I4nZYZhOaQD+Tk0Q7RT+0VPAqfnITcMc1Ab/LEhISQmQ8RAY6HI5K73DgccuMItTQ1CW0d887VOjLSK/9D37DprSZyU+aD/iFZ9KgEDrVIh+uTk1BF3+wXHmuZKgzmkF8ECfF0dcdThFA+cWdDQhUDxTEhpHLOu4yIvQ0IRPdAPDWy4XqtXn0fk4SqhHTnatC/WiXC4QEjwlEkXEYasyGhQt/a0OYFRjln6eSc8oshIV9q4Jw4Xbn3MUsSMgPFOIf803nkhICVRDbI6Un1c4iEnIRUZrlGhNA3QZoe6YEB+i4depYkJH3fvlr/aYrL0Vf+pbULCZnG5k5COOMlkhB7RUNJSNEf6l0kCd154/9eh4TMQZdcxAjPIRIKCfWzQl+ChoT6YXbKVomEDP1EQqffmNYS7FqeSMis9PyKISHTaUgoJCRzYDnHG7Xa2zN+08T+3DWi1F7OiDkvI7Ick0YWnmc59oYCtQG9tI3p7Akt3AH3TD+RkAGUSCiRkMwhkZCQmD4PCRnGIaGQkMwhJCQkps9DQoZxSCgkJHMICQmJ6fOQkGEcEgoJyRxCQkJi+jwkZBiHhEJCMoeQkJCYPg8JGcYhoZCQzCEkJCSmz0NChnFIKCQkcwgJCYnp85CQYRwSCgnJHEJCQmL6PCRkGIeEQkIyh5CQkJg+DwkZxiGhkJDMISQkJKbPQ0KGcUgoJCRzCAkJienzkJBhHBIKCckcQkJCYvo8JGQYh4RCQjKHkJCQmD4PCRnGIaGQkMwhJCQkps9DQoZxSCgkJHMICQmJ6fOQkGEcEgoJyRxCQkJi+vxiSAiCUdKRP4s5bWNzDhnnUnWdiCHZPOe0DU6UUMKxOHXCseCa6rv6PtWRP/znQh2MyCmtfRPzRcdKi/tH95tjwvOfFaXBM8g5d4qD8DgCGoPUd5zP0+wiITsi+pATWXX4IafNcsoqJ3WAQ0k2syOhjRPyL1TRV6kn11mtrBNYISN0ChEv4cgfES7ny73y4mutI4pqsp5D3cVEQvy/YI4D1tHA5JCR/w/fWZDQxgGJenj6l9HaEKMjEoJ0JLeOg+YEWnfsWZCQRXsc73OTs+k5/BBZkVsyk0O+OhARHOdw7piIh/zQE2eH2MQc214ECUE0D596bm2UkBEEpLPocdL7jz9YO6VO6nQHldImPQbajn3mXPKxnoIc9odMRIDIWcp99z1Pr5ctipjKCEmyT7kckxM+/f4H60jNSULjD83RnwhGZIS+KYMDUSE2oePAy0MRGY8+JvtH96bvmz5ohmIzx/YXQUIOPNGBzirHKEVGnKqgiEGk5MZJGSfGMEuSwqDX56cPOWnh9tWKf+DOfTjgIcstl2tfmYgKx0QGyYq8lKmjDNmAj8tNv6OT0CbaQ36csMRznyx9ryMHxMr8y4cP36VvkZLLPQUJiXB50DAvH6+vTOfY7uJISErkicvyiyjBDVSkRB1lDJhoAifGaKkvnWYQCW0cEIM8xVPQHRMCEhEjq5MSURLOidxjkZA74VjRnvS5L0dH7C8hZ5e+sQWWchAEy0GwAaMyOht05I8R7qUut/bp5mJJyIFRlECojuHhjBirHFPRgwx4MAlZ+D2nTUccE4JVhEdeyi0y5hpL2jIhDxFN9QwukxsCYmO8dOiyv2N8Z/mpzeuavqnjAxYHkdBGbvb1brq/dQw8Tj1GSMg0oCiBp6HvocgxB5GQOSBOOvVyy8Q4qAgRs0cC6ZSOidyDSGjz9GepeYpory8A6JtomKivS99DSEiRHsQM4Wa51U8TIaEOnBS+l8u1vcuxjQPyennODtgh9tpxuvZRdkZCRro8/Y+93OqSp2890S3LTy25FQ3vJKHNvt76NNbbV+u3W2WU3Hf8S24XEuqhfcJ3NquJBvi9SWloEBahN09+noLnsukoIv74Oz67jhRqJMSmujblifbmsNzqodLOJkQvbM4TDUNAREilTOwJoW/IR8utRD2dkO69EBLaC1HTAGMkfK+REJueOO2x0rGNHsdkiVEmNltZyh0zHUt29M2eWUlCyHsOhHtMne0aKyS0C50ZXFM0UhIfyx0ikLnvNd0EQiJQflZQJm34Lm3JV8qR728gEBKaoSUo4tJ+FEvAMtrAAVkOaDN0zB/7nRIS5NTvmdh/YylYJjb6kRv5+Tz7qTd+YX2sCKmcT77fDIGQ0M3wG+1uiIe9JO1F6BWx3sh1kdD21bhtDOvHcOUyYrTJjtwRUR7LWZGu/1SAujJd+0lAsTm8xJcBpXyX9j0kdEKN8+T+wQs/uvYLbr2VgXxUJiLYS0L+a20jpLm+qWKZyX5L1+txyb6XhFxuyvZHvxBbidsJ1Z2hOxAICXUAM2U1ex38Jkc/jvQnP85HFMQ13sj1joRKZ9R3+82Oli1Tyrarby0zu4gHHJCbJRg/JuT7YBIyubVUhZjYQC/31XbNNdeOh0BI6EhYa6+D1758nHggGhEPfyLBskyJ+sGRkByxzI2QjrVs0TITuUS6inKQWyQLJuwFiSiIEKk7mIQK2beEdOdq/ZbvmG8ypcvkdQRCQnVcRqnFofhtDU92iETEgxNSpk6RD6/+y41Vvo9KQnJM++NZ9pRYtsj5xxBcy0z2t5g/HxEPcvMdgoGAIBnGLmUfm4Rqe2f6ZfNS9s7G0M0c+wgJTaQV9jt4q4XT6YPT4Yz6o1icj6in9vaLaU1GQiIjcts/4g3bTf/Ikjkjo0gX2RXxQMZEOxAMjs93lma1NBkJFbLzdo2fOsx176yGzbnVhYQm0igkhCOyBIF0cD7KvtRiaH4EeFISKpxSyxa98h+6bHESQn4iQYimtqyCrE5KQoXsIiT2zvgJRNJxEAgJTYQzSxz+FkmhPpvRkA1PeE+zIqHCKSEkfhhY+6W0y+BlkRDyKkHCsyehQnYI6RNv+0JrmSiZko+HQEhoPCyv9QQJOeEsjoQ2TgkRDSUhllmeFkdCG9lZpkGqSdMiEBKaCN+QUANsSKjBIqU2AiGhNiaj1ISEGhhDQg0WKbURCAm1MRmlJiTUwBgSarBIqY1ASKiNySg1IaEGxpBQg0VKbQRCQm1MRqkJCTUwhoQaLFJqIxASamMySk1IqIExJNRgkVIbgZBQG5NRakJCDYwhoQaLlNoIhITamIxSExJqYAwJNVik1EYgJNTGZJSakFADY0iowSKlNgIhoTYmo9SEhBoYQ0INFim1EQgJtTEZpSYk1MAYEmqwSKmNQEiojckoNSGhBsaQUINFSm0EQkJtTEapCQk1MIaEGixSaiMQEmpjMkpNSKiBMSTUYJFSG4GQUBuTUWpCQg2MIaEGi5TaCISE2piMUhMSamAMCTVYpNRGICTUxmSUmpBQA2NIqMEipTYCIaE2JqPUhIQaGENCDRYptREICbUxGaUmJNTAGBJqsEipjUBIqI3JKDUhoQbGkFCDRUptBEJCbUxGqTkXEuKfvV/kP7q/fbU+aST/6H4Ud9jZSUhoJzyHX4SEOFVVaVGnbdiBiBwKOOR0VpyWww79vLLFREJ+Mu3tN06mlf6ST4dASGgibDn8kMMOdeqovvsxQAw9q3PHbl+tTyPVwYc6M20IRDp3jIMPOQaawx6XcPghRxtx1hik++OXf5qjfoYo/YZtQ0I3BLDrdiIhSIhTRstjoL/yxDe3kQIGf9ITWG9frZ2PZde37j1a/eSVn3WJ1KseEuKseWRGdso6BvqZP/vqtejw5CewbkhXZ6sdQrq9QEmjnQiEhHbCc/hFDJroBwfUuexyRhwUgsIpdTw0ZFQmOTT3l+TAMcU8ue/5yaF9y7bcuv+R76yPPGassRJLz/uPP1jLCAlBNsguUiI6hKSpO/ox0COT7liYXXI/IaEjaB8CwSk/9JYn15GBOyWEhDOS04blmT+RceJRSMj3O+5crR597aVtNDYVBBAb+2LsCUG6klXyipggJQgb8pLsLFvBq3Z89D1k6Uu4tJuYdKfC71L6DQkdUdM4pfZIyuhIjonjcY0I4eFTz20jqYMjoY0D+n7HEUXeDsXm9jc+9911NISMImLkluzIzYe9JAgZ0roRCW2WWxDWMUh3K2wKgxAICQ2Ca7zGOCUkg6PhlB4luGNSxjEHkZA9+XFAXrErwhhPgsN6goiJ9iAa5PI9I8kNQYmkBpOQLbe0yXzYTHPXsRAICR0L6R3j4JTsD7FkqTllbxIyB2TPZcir9R3Tm+yS9s1YjpXLNRFSXxJic5nN9Zu82ZtM0HS8E4GQ0E54jnsRp2QPhaWYO+VOErKoR5vMx531OKMR6bFJT1Tom9mdJLTZ42KZCQEtgXTHQer8egkJzVSnckqWabVX+Lwde/KdX1w/+V949vuzWW7dFE7tm7Fcg4hZlpUJ4iHqWTLpljJd8veQ0My1L6csl1Z8r73Wn7k4g6bHr655a1Ym9rj8F9nl9XxfFgIhoWXpK7MNAmeHQEjo7FQagYLAshAICS1LX5ltEDg7BEJCZ6fSCBQEloVASGhZ+spsg8DZIRASOjuVRqAgsCwEQkLL0ldmGwTODoGQ0NmpNAIFgWUhEBJalr4y2yBwdgiEhM5OpREoCCwLgZDQsvSV2QaBs0MgJHR2Ko1AQWBZCISElqWvzDYInB0CIaGzU2kECgLLQiAktCx9ZbZB4OwQCAmdnUojUBBYFgIhoWXpK7MNAmeHQG8Sev3111f6nAMKkoX/XFhLuv7rX/+6dnlnHX3q/p0Nc3EvAuD//PPPr770pS+tHj58uPrhD3+4956pG/ziF79YvfrqqyvyU6UXX3xx9dJLL1WHl+2R70pqV2uja8rLNoz95S9/ef159OjR2t69Ddgwxz4Y9SahW7durfTBIJacAEayAKQnjF7XyAF4aMJZ1Mc+Qxja9zHb42indLaPfexjWxyFJ/mb3/zmk5LRu9/97vW8PvzhDx9THduxPv/5z6/Hh5xrybEq7VvtuVftSjLju66RYwNKEItf8/Ldu3fVbE1Kurat7Cj0IqFy4Le//e0d3S2j2kkIwlAqCahUjtrty8+FhNAzhuTGtU/2sa47ATGPD3zgA6v3vve91xzAnWOscfv0c0oSQmZ00uWDfX3VScijS/UvAvFIpryGTviobWkrBCvUQZq7Ui8SgvF9IMqnMoAuYYZEHDUS4v7HHntsK+ehBMT8bkJCQ+TowmJI/a7x5Gy7jKhrOVvOgXGGtJW9lWPjMLrWFYkwTt+xynke+/vQecrp/eHpc+7rqzUSKknGCYgx9GDAT3ybAt1qXuhG16iXrnbZ2V4S8o7EbHRcGgcD37lzZz0ZMaTnWtbQB/WlAQGq2mvC1NEnwlNHGQCkOOp4Sos8eDrwXfe7crxcI6F3vetdW8BqBITSmB9zEMj0iVNQ5/VOQozF/N/61reun15dUQW4KPJAHvBxI/BxGJd+0AOGI2yYA/cIE5YtzNn7EQ7MUSTD3GinJyLyMT71jAE25Xz8fo1T4oaeNBcZo4+juZS5O0PtYQeezB15PTE+dRqLMvP0hBzU05aoARnBXnbJ/Nx+hC316guZ+M49nsBZuIEJc9Q93g6ZaEcb5kq7rmWT30f/ks1tUG2Yq67jn+q/9FXaOwkxH/rTveQ1m5G9IHuZ6AM74SM7oo30UZuD+thLQj5ZGSeTRHmeHCAXRmUpQ2xa3i+nor2MgInzHecUAHwnOeAaw/OakjRfnyvK9zAfw6wl2ql/V5CHv6pHVtpiBDIE3UuOLJ5cNm9HWQr1cYQh10sDEpGV/Yi4GVeGUbbhO/ouDVLtNBcfX9eUS8+M43MpcVBfjoPKPj59ILtsQm3KHELQHMoc2yKBga7hSCpjZ46vz83rwZokewEHJa6pvzKHcJQgv/K6vuPAu5L7Q62d+yp4uYxle29LgOD6kZzlPcihuTIX2XvZzr/Lb3iwdqW9JCSDleMwYU3ElYXQAEwdH1ce7SWYDLiclACmrQzO66jHmKgjCWDA0zzINbcaWwsEJyG1J99lBCIW2jnBuZxSirfFicAF+TVn+pCzuoz0RaItc6GdcCqNF4MAD+biTgse3A+GTuyKRN34NAfmLT0zJvfyETnSj3Ti8urpzfhuoLR1XQgXZKN/Poy3K3l/ugfZmItk0f2uT82VOTi2sj93NnSj/pygqFOizPjcpySsnISkL9qhKzCRrXO/xpcsEBltSG4v0onG8lz68HH9usgRuUiua/mI2vs1zYkc3LuS69Tvwa6Zt+tZffg9teu020lCbtwyOJSrCXSBQcfucAisJMXIuVTvBiOD9zoUq+Rz8L657gpVP7pPuRutZFHuBqj2Zb8yHurdKQWyz0HGR1s3dDmhnKIc15VHH05C4OLJ9eR4uJyql6GWJO1tRYYyeh9PeqUfT6VOHBdkQx7kpx1jCSvvoywzrvCRfjynT5LbSdkHdsY9wlf9lfbHfSI+2ijpfl96lSTk2DmJICt98mGursNSfuGqh73GV+74uj503edQ81XJr/bYg2PpZdmK2nqOHLIhv0flchxsV9dkV94f5Z0k1OVMUgKdY1hlYiIa2JVHu0NJyMdxZcL6/pHRML4TgM/RFUY75uj3OeHpPsdiCAn5vOnLFeiGxfguB2VhyJPfZZbzaW5OQi6z18uw1CfLYZ7ePqauSWc1EtK8yvsVCdAHTuKyqV9ybEdz0fz35cgE/iIJ7497vb5LJpGuSKh0FvpxjMHO7cRJQ/avh3DX6qCUy8nScWfOmhey1ZLjKf14O7dPtwGRW9lvSUJ+P21dXh9HZfBBbmSSTUgvrl/HkDFqqS7xpqWMUJ3X8pLdXBgpyQc+hIRwUE84oeaCQQB0+aG+C0gHRsboBkjfKN2Ty4UClPyJr/HU1p+oau9G4YYF1qUMfEeOfU9RJxs3QK+XYQi3rvEYU8Yi/fuTV2SD4dXmS50/if2BpLHJhbtw8RxcwFJ4+jXK3idtRELg3TUnySBn1/eyb10HL+kRmT3tIiHH3++hDHkIg655lhGm+nBbqZEQDwX13ZW7rzoJyTbQm+5Fv2WSTkrfoJ37JPpQqtmgrinvJCEG1IR25YCp5A6JompJJFQ6qOoZS0JiKHwvScgFK6OC2phlncsmh6ONxmPMcv6uIMZXkqFyD/2SanVqr4hLuHEfH5+H2nru2GocXXc83Am8XoYmEtlFAuq3RkKK5NzQ1N5zxmaewooyMvpT09t72fGr6dcfGPQrvdUcx/slKhXJdJGQCA57FNmUulE9bUjugL5fhR3THx/auA59Xn3K9NU1d3QuO9qVu86chBxjyUY/pY2o79I3NH8RoWybep+bk6DuIe8kIdoJUFkAAANmSURBVCmWgZmkjEqGJQPlOsqlXpMELLXjPj4lsdAWY+JeVyL1ZduShJi4jBmnkqHTFwAxPp+u5HMtDUz9Mg9/4njIrXvoR6RCe76T3IlQiORxIhMp6CnO/U4gjj/ylY7nsnGd+8s+vF7jeb/0qeRzk1FKx3I22no7NyqXmfvlzI4L93s0oLHL3OeNPsAFDPlQ1rzom+TYMD8ltyvVdzmy7nGnEabMx5Mc1XFRW+Ymfbus2Ab1ase92CvJ7ciJwsekrAdASQ6uU2RmvvTJh7LuY2zNrYuEHHvau47dVsGTvvRxWeUfzNl1wHxqqZOE5Fw1AqAjNzoc1L8LaM8BilRTMu3EopQFlMCtzcGF4x6ULwPju5yuJjRg0IaPA0Zbv8Z1xiExJ93juc9bINew8Lm5PKXSkUPYM45w86eoxpFs3gf4Knm98MDwfc6QuBOvO4E7O/NX34qmmB/3+nc9BUscqXdncAfWfD13snO8vSyZuI/+dQ38yrnL4aUH4epjqux4SB5dI6+RUKlz16GThjsr8/V58r3UrY+re8Hbk+Qu69XG5ybMyHWfbFzt/YFLG+yI5Pake8sceTxJj27zfp1ylYTcwfUEKW/0CWG4Lmg5Mb670h0ArjGG39+HhJgPTuGGTV8I60/4ct58dwdh3DL5XOhTBgwu7sAYlz+FZUB+P9fdIMFK8mlcsPSnDGPy8bnVxvH7dY+IgmuuIxkf9YwPCege5aWu6cvn7sbqkY7udx0zDu39/q52kqPMkbl0Uvqgzuei+xx3jeURhxNwOVf1QS5npw+PBNSmRkJcq41fGwcndztiHPqU/WicMkcfkks2BA6qK/Wn+90OGIfkRFPD0u0DH1Ni3JrumQO4lUkPhxoOalslIV2cOheQNx2HflAgYM819ZUVOfYZ45gy3nS8PvdLP4fK5ff3wVFz0sNjTLz69KXx97XFXmnbRyb1pYeuP6B07dg5c4cYyWsJuUSQu3zzpCRUm3jqgkAQ6EZA0RBLxrknIjNIaN/SOyQ0d01mfkGgQEBLJZZUc00eBe2L9EJCc9Vi5hUEOhDAqbWP2tHk5NVEbOwRke9LIaF9COV6EAgCkyIQEpoU3nQeBILAPgRCQvsQyvUgEAQmRSAkNCm86TwIBIF9CISE9iGU60EgCEyKwP8DKgTOfro6ErEAAAAASUVORK5CYII=;" vertex="1" parent="1">
          <mxGeometry x="233.63" y="370" width="172.74" height="104" as="geometry" />
        </mxCell>
        <mxCell id="benL4QOIB2VxET3UyS8y-11" value="" style="endArrow=classic;html=1;strokeWidth=1;exitX=0.5;exitY=1;exitDx=0;exitDy=0;" edge="1" parent="1" source="benL4QOIB2VxET3UyS8y-1" target="benL4QOIB2VxET3UyS8y-8">
          <mxGeometry width="50" height="50" relative="1" as="geometry">
            <mxPoint x="290" y="310" as="sourcePoint" />
            <mxPoint x="340" y="260" as="targetPoint" />
          </mxGeometry>
        </mxCell>
        <mxCell id="benL4QOIB2VxET3UyS8y-12" value="" style="endArrow=classic;html=1;strokeWidth=1;exitX=0.5;exitY=1;exitDx=0;exitDy=0;" edge="1" parent="1" source="benL4QOIB2VxET3UyS8y-2" target="benL4QOIB2VxET3UyS8y-10">
          <mxGeometry width="50" height="50" relative="1" as="geometry">
            <mxPoint x="170" y="250" as="sourcePoint" />
            <mxPoint x="170" y="390" as="targetPoint" />
          </mxGeometry>
        </mxCell>
        <mxCell id="benL4QOIB2VxET3UyS8y-15" style="edgeStyle=orthogonalEdgeStyle;rounded=0;orthogonalLoop=1;jettySize=auto;html=1;entryX=0;entryY=0.5;entryDx=0;entryDy=0;endArrow=classic;endFill=1;strokeWidth=1;exitX=0.5;exitY=0;exitDx=0;exitDy=0;curved=1;" edge="1" parent="1" source="benL4QOIB2VxET3UyS8y-13" target="benL4QOIB2VxET3UyS8y-6">
          <mxGeometry relative="1" as="geometry" />
        </mxCell>
        <mxCell id="benL4QOIB2VxET3UyS8y-22" style="edgeStyle=orthogonalEdgeStyle;curved=1;rounded=0;orthogonalLoop=1;jettySize=auto;html=1;entryX=0;entryY=0.5;entryDx=0;entryDy=0;endArrow=classic;endFill=1;strokeWidth=1;exitX=0.5;exitY=1;exitDx=0;exitDy=0;" edge="1" parent="1" source="benL4QOIB2VxET3UyS8y-13" target="benL4QOIB2VxET3UyS8y-16">
          <mxGeometry relative="1" as="geometry" />
        </mxCell>
        <mxCell id="benL4QOIB2VxET3UyS8y-13" value="GitHub" style="rounded=1;whiteSpace=wrap;html=1;verticalAlign=top;" vertex="1" parent="1">
          <mxGeometry x="-200" y="350" width="120" height="120" as="geometry" />
        </mxCell>
        <mxCell id="benL4QOIB2VxET3UyS8y-14" value="Microservice Repository" style="ellipse;whiteSpace=wrap;html=1;aspect=fixed;fillColor=#dae8fc;strokeColor=#6c8ebf;" vertex="1" parent="1">
          <mxGeometry x="-180" y="380" width="80" height="80" as="geometry" />
        </mxCell>
        <mxCell id="benL4QOIB2VxET3UyS8y-16" value="Cleanup" style="rounded=1;whiteSpace=wrap;html=1;verticalAlign=top;" vertex="1" parent="1">
          <mxGeometry x="30" y="560" width="430" height="120" as="geometry" />
        </mxCell>
        <mxCell id="benL4QOIB2VxET3UyS8y-17" value="" style="edgeStyle=orthogonalEdgeStyle;rounded=0;orthogonalLoop=1;jettySize=auto;html=1;endArrow=classic;endFill=1;" edge="1" parent="1" source="benL4QOIB2VxET3UyS8y-18" target="benL4QOIB2VxET3UyS8y-19">
          <mxGeometry relative="1" as="geometry" />
        </mxCell>
        <mxCell id="benL4QOIB2VxET3UyS8y-23" style="edgeStyle=orthogonalEdgeStyle;rounded=0;orthogonalLoop=1;jettySize=auto;html=1;entryX=0.5;entryY=1;entryDx=0;entryDy=0;endArrow=classic;endFill=1;strokeWidth=1;" edge="1" parent="1" source="benL4QOIB2VxET3UyS8y-18" target="benL4QOIB2VxET3UyS8y-8">
          <mxGeometry relative="1" as="geometry" />
        </mxCell>
        <mxCell id="benL4QOIB2VxET3UyS8y-18" value="Tear down infrastructure" style="ellipse;whiteSpace=wrap;html=1;aspect=fixed;fillColor=#f8cecc;strokeColor=#b85450;" vertex="1" parent="1">
          <mxGeometry x="120" y="590" width="80" height="80" as="geometry" />
        </mxCell>
        <mxCell id="benL4QOIB2VxET3UyS8y-24" style="edgeStyle=orthogonalEdgeStyle;rounded=0;orthogonalLoop=1;jettySize=auto;html=1;endArrow=classic;endFill=1;strokeWidth=1;" edge="1" parent="1" source="benL4QOIB2VxET3UyS8y-19" target="benL4QOIB2VxET3UyS8y-10">
          <mxGeometry relative="1" as="geometry" />
        </mxCell>
        <mxCell id="benL4QOIB2VxET3UyS8y-19" value="Undeploy PR" style="ellipse;whiteSpace=wrap;html=1;aspect=fixed;fillColor=#f8cecc;strokeColor=#b85450;" vertex="1" parent="1">
          <mxGeometry x="280" y="590" width="80" height="80" as="geometry" />
        </mxCell>
        <mxCell id="benL4QOIB2VxET3UyS8y-20" value="" style="endArrow=classic;dashed=1;html=1;dashPattern=1 3;strokeWidth=1;entryX=0;entryY=0.5;entryDx=0;entryDy=0;endFill=1;" edge="1" parent="1" target="benL4QOIB2VxET3UyS8y-18">
          <mxGeometry width="50" height="50" relative="1" as="geometry">
            <mxPoint x="40" y="630" as="sourcePoint" />
            <mxPoint x="440" y="690" as="targetPoint" />
          </mxGeometry>
        </mxCell>
        <mxCell id="benL4QOIB2VxET3UyS8y-21" value="" style="endArrow=classic;dashed=1;html=1;dashPattern=1 3;strokeWidth=1;endFill=1;exitX=1;exitY=0.5;exitDx=0;exitDy=0;" edge="1" parent="1" source="benL4QOIB2VxET3UyS8y-19">
          <mxGeometry width="50" height="50" relative="1" as="geometry">
            <mxPoint x="50" y="640" as="sourcePoint" />
            <mxPoint x="440" y="630" as="targetPoint" />
          </mxGeometry>
        </mxCell>
        <mxCell id="benL4QOIB2VxET3UyS8y-25" value="Azure" style="rounded=1;whiteSpace=wrap;html=1;verticalAlign=top;" vertex="1" parent="1">
          <mxGeometry x="20" y="900" width="540" height="180" as="geometry" />
        </mxCell>
        <mxCell id="benL4QOIB2VxET3UyS8y-26" value="Build" style="rounded=1;whiteSpace=wrap;html=1;verticalAlign=top;" vertex="1" parent="1">
          <mxGeometry x="20" y="710" width="630" height="120" as="geometry" />
        </mxCell>
        <mxCell id="benL4QOIB2VxET3UyS8y-50" value="" style="edgeStyle=orthogonalEdgeStyle;rounded=0;orthogonalLoop=1;jettySize=auto;html=1;endArrow=classic;endFill=1;strokeWidth=1;" edge="1" parent="1" source="benL4QOIB2VxET3UyS8y-28" target="benL4QOIB2VxET3UyS8y-49">
          <mxGeometry relative="1" as="geometry" />
        </mxCell>
        <mxCell id="benL4QOIB2VxET3UyS8y-28" value="Provision&lt;br&gt;Build and PR queues" style="ellipse;whiteSpace=wrap;html=1;aspect=fixed;fillColor=#d5e8d4;strokeColor=#82b366;" vertex="1" parent="1">
          <mxGeometry x="110" y="740" width="80" height="80" as="geometry" />
        </mxCell>
        <mxCell id="benL4QOIB2VxET3UyS8y-29" value="Deploy PR" style="ellipse;whiteSpace=wrap;html=1;aspect=fixed;fillColor=#d5e8d4;strokeColor=#82b366;" vertex="1" parent="1">
          <mxGeometry x="406.37" y="740" width="80" height="80" as="geometry" />
        </mxCell>
        <mxCell id="benL4QOIB2VxET3UyS8y-30" value="" style="endArrow=classic;dashed=1;html=1;dashPattern=1 3;strokeWidth=1;entryX=0;entryY=0.5;entryDx=0;entryDy=0;endFill=1;" edge="1" parent="1" target="benL4QOIB2VxET3UyS8y-28">
          <mxGeometry width="50" height="50" relative="1" as="geometry">
            <mxPoint x="30" y="780" as="sourcePoint" />
            <mxPoint x="430" y="840" as="targetPoint" />
          </mxGeometry>
        </mxCell>
        <mxCell id="benL4QOIB2VxET3UyS8y-31" value="" style="endArrow=classic;dashed=1;html=1;dashPattern=1 3;strokeWidth=1;endFill=1;exitX=1;exitY=0.5;exitDx=0;exitDy=0;" edge="1" parent="1" source="benL4QOIB2VxET3UyS8y-29">
          <mxGeometry width="50" height="50" relative="1" as="geometry">
            <mxPoint x="40" y="790" as="sourcePoint" />
            <mxPoint x="540" y="780" as="targetPoint" />
          </mxGeometry>
        </mxCell>
        <mxCell id="benL4QOIB2VxET3UyS8y-33" value="" style="shape=image;verticalLabelPosition=bottom;labelBackgroundColor=#ffffff;verticalAlign=top;aspect=fixed;imageAspect=0;image=data:image/png,iVBORw0KGgoAAAANSUhEUgAAASEAAACuCAYAAAB5jLuiAAAgAElEQVR4Ae2dwctsSXnG7x/gQhCCu1ka4kZxEcwmBAS5uUtRkoWJLiIxDsrEQS4i6J0EhwFBvEbjh8PVC6IIE5nFzZDFJGFGIgYnEMMMKIioG4MLmU0gWXX49fTT5/nq1Ok+p79zus/pfgqaqq5Tp6re533f57xVp7+vbq2SgkAQCAInRODWCcfO0EEgCASBVUgoRhAEgsBJEQgJnRT+DB4EgkBIKDYQBILASREICZ0U/sMH/82vfrv67X+/fngHC77zJ6/8bMGzz9RLBEJCJSIz+v6///N/q/948b9Wf/sn91el473y4murJ9/5xdXXP/m9FWXanlOCZJ//+39affqPn2mJdfcP7q/u3blaPfraS6ufv/bL1vVULAuBkNAM9fWfL7+6+vrdb6/+4rG7qw+95cnVn976eJWEPv2Hf7e6d/tqRc7nW/cerX788k9nKFG/KRHZ/eODf14TDzL/+e98cvXXv/83rZuRmc9n/ugrKwjp6fc/WL3w7PdXEFfS8hAICc1EZzzRHz713Jp4PvimJ9b5X/7ep1d8+F6LhNYkdOdqHRXIManDMSGk8p6ZiHptGkRw//oP/7aO9kQ8f/W7n1nLjeydJCS5yQtC+pdv/3sI6RrK8/4SEjqhfrTkENEQ+Yh4yPW9Fwl1OCWENLdli5aZz/zZV9dRHhGPEw9y63svEuqQ/QsffLiCkC517+yEpj1o6JDQILhu3lhLjrvveXod4eCAJfFAOlz/9jPPr51xMAl1OOUply0QD8vM+48/2C4zRTTITxksICDaqN1gEqrITnR4/yPfOcu9s5tb5Ol7CAkdQQe+5GCPp3zyK+r5+Ds+u/rG5757bbOVtjcioYpTEh0dK0pgScj+FjIih6K7knghXZZlYEVibwjZb0RCkn2zhwQZ8Xn2U99b9N7ZEUz2qEOEhCaEmzdbPNFxPiceHFHkQs6HtrWkduX+Dm/EcCjeEh30sX0UooQxly3sb3kUJ+Ih2qEMEYMJ3yEfEY/Lz5sxZB+FhBwjIyTtnS15M98xW2o5JDSR5nBCNlpxOn14+hPtsBeCk+GskMn7bn20cxN5MhIqHJM3Tbzyv+myBUJRtIfczF/LLl63E+lBuCxLwQISqqXJSKiQm01tyBxCQmcl2dfmlrpxEQgJjYvntjecCBLiSY5x6/sPXvjRtg0FHPLkJFQ4Jk4JKfEbJKKEWqRyTQj7QltIB9n5fRNLLIimFtEoErLbt8WjkJDLfad55Z/fIG3VcJRCSGgimCEe9jWU2JSFbGZPQnLMzbKF6IilWt8ECRHx+RspIqAlkNB2WbtZqn7ibV8YRMB9MUq76wiEhK7jMdo3SMgJZ3EktCEjIqKhJMQyy9PiSGgjO0u0IVGgy5xyfwRCQv2xGtQyJNTAFRJqsEipjUBIqI3JKDUhoQbGkFCDRUptBEJCbUxGqQkJNTCGhBosUmojEBJqYzJKTUiogTEk1GCRUhuBkFAbk1FqQkINjCGhBouU2giEhNqYjFITEmpgDAk1WKTURiAk1MZklJqQUANjSKjBIqU2AiGhNiaj1ISEGhhDQg0WKbURCAm1MRmlJiTUwBgSarBIqY1ASKiNySg1IaEGxpBQg0VKbQRCQm1MRqkJCTUwhoQaLFJqIxASamMySk1IqIExJNRgkVIbgZBQG5NRakJCDYwhoQaLlNoIhITamIxSExJqYAwJNVik1EYgJNTGZJSakFADY0iowSKlNgIhoTYmo9SEhBoYQ0INFim1EQgJtTEZpSYk1MAYEmqwSKmNQEiojckoNSGhBsaQUINFSm0EQkJtTEapCQk1MIaEGixSaiMQEmpjMkpNSKiBMSTUYJFSG4GQUBuTUWrOhYT4Z+8X+Y/ub1+tctrGKK6wt5OQ0F6IDmsACXF2ltKiTtvYHAjI+WOPvvbSteN7JE9XriN//BDBJUVCnC4C8XJMNgdTJk2PQEhoIox12CGHAHLiKuexU+YwQE+zOfzQjoW+yVntIiFk5XBDyHj2hx/evloTD6exQrq/+dVvXUUpT4xASGgigEVCOgKanEMByYkMdPa8IiSPHHxKkx8DvXFAnvxjnEcPCfnxz5Ib2SGlh089t42sTnoC60ik67pK+TAEQkKH4dbrLoiGKAgi4YMjyhk/+KYn1qeSclQyZcioliYhoc1yi6XHt+49Wv38tV/Whj64jtNXIWFOXUU2JyLKfJAbLGjjp7VqUO5H9trJrUQs29NSdWJsn3xzqizLraff/2AU0tV8kx+OQEjocOx634mTcSQ0J5OWTili+tBbnlxHSCxfWLLJMcckoXK/4xinixLhsRRFPmQh+hERS3Ywuf/4gzVxiYzBazQS2pAu5APpdkWdvRWahqMiEBIaFc79nckpcTx3SjkmUQL17KmwbKOetqXjsGnKxvHeiGCz3IKATrnfAeFBrsiEbB4dIaPkFknTDsI6OBKy5db9j3xnvcl8DNLdbwFpUSIQEioROdJ3OSXLkppTKko4iITMAb/+ye+tfvzyT48kVb9h2Pgl4tsVGUr+QSRkyy3I+ZSk2w+JtAKBkNAM7ACn7NpD6U1C5oBL2u9g+cVSjOiPj8hHeS8S2pAukeEcSXcGJjbrKYSEZqaemlPuXI4Vm8zlsm1m4nVOhz0wlmuQjpZkEFEnCRnpEvWM8Wavc3K5MCkCIaFJ4T28cy3XcML33fpodU+IX/TqR3XntN/B2zpe5eu3RiWKRDxPvvOL2WQugVno95DQAMVp2VS+0qZ+ilfdmhrjMYanWp1fH7MMwf3ghR+t3/CV/bK3M+Wek35P5eOyKX8M0gVj5NObSs0BebPfJDRunoeE9mCoZQJva3jNTFRSIyGezPr9yQvPfr9FGnuGmd1lnFxLQ95cEZV843Pfbc2T/Sfk5rc75/D6G7Ln5wH8yptlIXLXSEj6HutHni1gL6giJFRRNg7I/gQ/NCx/34Jh1kho7Yj8YM7eTC3RQPUTAl6P+94MRMQSqUzIqB8P6ndIENOSIgVIBuLhQYPMvkGO/msktP15hOmbTfFjRWmlHpb8PSRk2iP0502NDFE/rNObGvK9JOS/3F2IgUI8EExJPC53HxLa/mbJ5J4rEfuDhmgH4qnpey8JFfqGnPSjyCmXqWa2iy9ePAmx5NAfl2JwOJs7H4aJgUI+g0moYqCE8foD0WPsa3RZqPY7dhGPyz2IhAq5FSFBSP5r8K65TVUP3nrQdBEPciI3H/Q9iIQKuZ2QlvrWcipdeL8XSUL7nvxOPPyYEMdhr0AOu3M55obYVT7Ra3Vk2PV7JJwOJ8RB2RNhicJShGUKTrlvObaNhPbIjXMea+kC8fCg+coT31zLVnvQiHh40BAJQ1TYCDIfTEKGgUiYZSvL1NJ+3CEvsXwxJKQnf/k7FEU9EIw+7AXhgP5GCmPGWActx8wQOx1U/0Zi8wvfsQ20tt+BnC43cvEdsoGkyqf2aCQkPDa/8YGMcFA2tMdeuiADG+ldv8pGZukb4ikjNPSArscgIde9CGmuy9RTkOBFkBCOxVstDE8fPfX1ZCTigXyIAmpEgDNz7+gkZI4pA2Vjd4w3bEQAyM0TvZQbOaiHYHBW5OY1fC2NTkKSeZNLbiIFXonX8K/Nq6tOepTMIl1FNtSzBEfnlGvL4qlIaEtItm/G37ZBgrV5dMl4TvUXQ0I4nZYZhOaQD+Tk0Q7RT+0VPAqfnITcMc1Ab/LEhISQmQ8RAY6HI5K73DgccuMItTQ1CW0d887VOjLSK/9D37DprSZyU+aD/iFZ9KgEDrVIh+uTk1BF3+wXHmuZKgzmkF8ECfF0dcdThFA+cWdDQhUDxTEhpHLOu4yIvQ0IRPdAPDWy4XqtXn0fk4SqhHTnatC/WiXC4QEjwlEkXEYasyGhQt/a0OYFRjln6eSc8oshIV9q4Jw4Xbn3MUsSMgPFOIf803nkhICVRDbI6Un1c4iEnIRUZrlGhNA3QZoe6YEB+i4depYkJH3fvlr/aYrL0Vf+pbULCZnG5k5COOMlkhB7RUNJSNEf6l0kCd154/9eh4TMQZdcxAjPIRIKCfWzQl+ChoT6YXbKVomEDP1EQqffmNYS7FqeSMis9PyKISHTaUgoJCRzYDnHG7Xa2zN+08T+3DWi1F7OiDkvI7Ick0YWnmc59oYCtQG9tI3p7Akt3AH3TD+RkAGUSCiRkMwhkZCQmD4PCRnGIaGQkMwhJCQkps9DQoZxSCgkJHMICQmJ6fOQkGEcEgoJyRxCQkJi+jwkZBiHhEJCMoeQkJCYPg8JGcYhoZCQzCEkJCSmz0NChnFIKCQkcwgJCYnp85CQYRwSCgnJHEJCQmL6PCRkGIeEQkIyh5CQkJg+DwkZxiGhkJDMISQkJKbPQ0KGcUgoJCRzCAkJienzkJBhHBIKCckcQkJCYvo8JGQYh4RCQjKHkJCQmD4PCRnGIaGQkMwhJCQkps9DQoZxSCgkJHMICQmJ6fOQkGEcEgoJyRxCQkJi+vxiSAiCUdKRP4s5bWNzDhnnUnWdiCHZPOe0DU6UUMKxOHXCseCa6rv6PtWRP/znQh2MyCmtfRPzRcdKi/tH95tjwvOfFaXBM8g5d4qD8DgCGoPUd5zP0+wiITsi+pATWXX4IafNcsoqJ3WAQ0k2syOhjRPyL1TRV6kn11mtrBNYISN0ChEv4cgfES7ny73y4mutI4pqsp5D3cVEQvy/YI4D1tHA5JCR/w/fWZDQxgGJenj6l9HaEKMjEoJ0JLeOg+YEWnfsWZCQRXsc73OTs+k5/BBZkVsyk0O+OhARHOdw7piIh/zQE2eH2MQc214ECUE0D596bm2UkBEEpLPocdL7jz9YO6VO6nQHldImPQbajn3mXPKxnoIc9odMRIDIWcp99z1Pr5ctipjKCEmyT7kckxM+/f4H60jNSULjD83RnwhGZIS+KYMDUSE2oePAy0MRGY8+JvtH96bvmz5ohmIzx/YXQUIOPNGBzirHKEVGnKqgiEGk5MZJGSfGMEuSwqDX56cPOWnh9tWKf+DOfTjgIcstl2tfmYgKx0QGyYq8lKmjDNmAj8tNv6OT0CbaQ36csMRznyx9ryMHxMr8y4cP36VvkZLLPQUJiXB50DAvH6+vTOfY7uJISErkicvyiyjBDVSkRB1lDJhoAifGaKkvnWYQCW0cEIM8xVPQHRMCEhEjq5MSURLOidxjkZA74VjRnvS5L0dH7C8hZ5e+sQWWchAEy0GwAaMyOht05I8R7qUut/bp5mJJyIFRlECojuHhjBirHFPRgwx4MAlZ+D2nTUccE4JVhEdeyi0y5hpL2jIhDxFN9QwukxsCYmO8dOiyv2N8Z/mpzeuavqnjAxYHkdBGbvb1brq/dQw8Tj1GSMg0oCiBp6HvocgxB5GQOSBOOvVyy8Q4qAgRs0cC6ZSOidyDSGjz9GepeYpory8A6JtomKivS99DSEiRHsQM4Wa51U8TIaEOnBS+l8u1vcuxjQPyennODtgh9tpxuvZRdkZCRro8/Y+93OqSp2890S3LTy25FQ3vJKHNvt76NNbbV+u3W2WU3Hf8S24XEuqhfcJ3NquJBvi9SWloEBahN09+noLnsukoIv74Oz67jhRqJMSmujblifbmsNzqodLOJkQvbM4TDUNAREilTOwJoW/IR8utRD2dkO69EBLaC1HTAGMkfK+REJueOO2x0rGNHsdkiVEmNltZyh0zHUt29M2eWUlCyHsOhHtMne0aKyS0C50ZXFM0UhIfyx0ikLnvNd0EQiJQflZQJm34Lm3JV8qR728gEBKaoSUo4tJ+FEvAMtrAAVkOaDN0zB/7nRIS5NTvmdh/YylYJjb6kRv5+Tz7qTd+YX2sCKmcT77fDIGQ0M3wG+1uiIe9JO1F6BWx3sh1kdD21bhtDOvHcOUyYrTJjtwRUR7LWZGu/1SAujJd+0lAsTm8xJcBpXyX9j0kdEKN8+T+wQs/uvYLbr2VgXxUJiLYS0L+a20jpLm+qWKZyX5L1+txyb6XhFxuyvZHvxBbidsJ1Z2hOxAICXUAM2U1ex38Jkc/jvQnP85HFMQ13sj1joRKZ9R3+82Oli1Tyrarby0zu4gHHJCbJRg/JuT7YBIyubVUhZjYQC/31XbNNdeOh0BI6EhYa6+D1758nHggGhEPfyLBskyJ+sGRkByxzI2QjrVs0TITuUS6inKQWyQLJuwFiSiIEKk7mIQK2beEdOdq/ZbvmG8ypcvkdQRCQnVcRqnFofhtDU92iETEgxNSpk6RD6/+y41Vvo9KQnJM++NZ9pRYtsj5xxBcy0z2t5g/HxEPcvMdgoGAIBnGLmUfm4Rqe2f6ZfNS9s7G0M0c+wgJTaQV9jt4q4XT6YPT4Yz6o1icj6in9vaLaU1GQiIjcts/4g3bTf/Ikjkjo0gX2RXxQMZEOxAMjs93lma1NBkJFbLzdo2fOsx176yGzbnVhYQm0igkhCOyBIF0cD7KvtRiaH4EeFISKpxSyxa98h+6bHESQn4iQYimtqyCrE5KQoXsIiT2zvgJRNJxEAgJTYQzSxz+FkmhPpvRkA1PeE+zIqHCKSEkfhhY+6W0y+BlkRDyKkHCsyehQnYI6RNv+0JrmSiZko+HQEhoPCyv9QQJOeEsjoQ2TgkRDSUhllmeFkdCG9lZpkGqSdMiEBKaCN+QUANsSKjBIqU2AiGhNiaj1ISEGhhDQg0WKbURCAm1MRmlJiTUwBgSarBIqY1ASKiNySg1IaEGxpBQg0VKbQRCQm1MRqkJCTUwhoQaLFJqIxASamMySk1IqIExJNRgkVIbgZBQG5NRakJCDYwhoQaLlNoIhITamIxSExJqYAwJNVik1EYgJNTGZJSakFADY0iowSKlNgIhoTYmo9SEhBoYQ0INFim1EQgJtTEZpSYk1MAYEmqwSKmNQEiojckoNSGhBsaQUINFSm0EQkJtTEapCQk1MIaEGixSaiMQEmpjMkpNSKiBMSTUYJFSG4GQUBuTUWpCQg2MIaEGi5TaCISE2piMUhMSamAMCTVYpNRGICTUxmSUmpBQA2NIqMEipTYCIaE2JqPUhIQaGENCDRYptREICbUxGaUmJNTAGBJqsEipjUBIqI3JKDUhoQbGkFCDRUptBEJCbUxGqTkXEuKfvV/kP7q/fbU+aST/6H4Ud9jZSUhoJzyHX4SEOFVVaVGnbdiBiBwKOOR0VpyWww79vLLFREJ+Mu3tN06mlf6ST4dASGgibDn8kMMOdeqovvsxQAw9q3PHbl+tTyPVwYc6M20IRDp3jIMPOQaawx6XcPghRxtx1hik++OXf5qjfoYo/YZtQ0I3BLDrdiIhSIhTRstjoL/yxDe3kQIGf9ITWG9frZ2PZde37j1a/eSVn3WJ1KseEuKseWRGdso6BvqZP/vqtejw5CewbkhXZ6sdQrq9QEmjnQiEhHbCc/hFDJroBwfUuexyRhwUgsIpdTw0ZFQmOTT3l+TAMcU8ue/5yaF9y7bcuv+R76yPPGassRJLz/uPP1jLCAlBNsguUiI6hKSpO/ox0COT7liYXXI/IaEjaB8CwSk/9JYn15GBOyWEhDOS04blmT+RceJRSMj3O+5crR597aVtNDYVBBAb+2LsCUG6klXyipggJQgb8pLsLFvBq3Z89D1k6Uu4tJuYdKfC71L6DQkdUdM4pfZIyuhIjonjcY0I4eFTz20jqYMjoY0D+n7HEUXeDsXm9jc+9911NISMImLkluzIzYe9JAgZ0roRCW2WWxDWMUh3K2wKgxAICQ2Ca7zGOCUkg6PhlB4luGNSxjEHkZA9+XFAXrErwhhPgsN6goiJ9iAa5PI9I8kNQYmkBpOQLbe0yXzYTHPXsRAICR0L6R3j4JTsD7FkqTllbxIyB2TPZcir9R3Tm+yS9s1YjpXLNRFSXxJic5nN9Zu82ZtM0HS8E4GQ0E54jnsRp2QPhaWYO+VOErKoR5vMx531OKMR6bFJT1Tom9mdJLTZ42KZCQEtgXTHQer8egkJzVSnckqWabVX+Lwde/KdX1w/+V949vuzWW7dFE7tm7Fcg4hZlpUJ4iHqWTLpljJd8veQ0My1L6csl1Z8r73Wn7k4g6bHr655a1Ym9rj8F9nl9XxfFgIhoWXpK7MNAmeHQEjo7FQagYLAshAICS1LX5ltEDg7BEJCZ6fSCBQEloVASGhZ+spsg8DZIRASOjuVRqAgsCwEQkLL0ldmGwTODoGQ0NmpNAIFgWUhEBJalr4y2yBwdgiEhM5OpREoCCwLgZDQsvSV2QaBs0MgJHR2Ko1AQWBZCISElqWvzDYInB0CIaGzU2kECgLLQiAktCx9ZbZB4OwQCAmdnUojUBBYFgIhoWXpK7MNAmeHQG8Sev3111f6nAMKkoX/XFhLuv7rX/+6dnlnHX3q/p0Nc3EvAuD//PPPr770pS+tHj58uPrhD3+4956pG/ziF79YvfrqqyvyU6UXX3xx9dJLL1WHl+2R70pqV2uja8rLNoz95S9/ef159OjR2t69Ddgwxz4Y9SahW7durfTBIJacAEayAKQnjF7XyAF4aMJZ1Mc+Qxja9zHb42indLaPfexjWxyFJ/mb3/zmk5LRu9/97vW8PvzhDx9THduxPv/5z6/Hh5xrybEq7VvtuVftSjLju66RYwNKEItf8/Ldu3fVbE1Kurat7Cj0IqFy4Le//e0d3S2j2kkIwlAqCahUjtrty8+FhNAzhuTGtU/2sa47ATGPD3zgA6v3vve91xzAnWOscfv0c0oSQmZ00uWDfX3VScijS/UvAvFIpryGTviobWkrBCvUQZq7Ui8SgvF9IMqnMoAuYYZEHDUS4v7HHntsK+ehBMT8bkJCQ+TowmJI/a7x5Gy7jKhrOVvOgXGGtJW9lWPjMLrWFYkwTt+xynke+/vQecrp/eHpc+7rqzUSKknGCYgx9GDAT3ybAt1qXuhG16iXrnbZ2V4S8o7EbHRcGgcD37lzZz0ZMaTnWtbQB/WlAQGq2mvC1NEnwlNHGQCkOOp4Sos8eDrwXfe7crxcI6F3vetdW8BqBITSmB9zEMj0iVNQ5/VOQozF/N/61reun15dUQW4KPJAHvBxI/BxGJd+0AOGI2yYA/cIE5YtzNn7EQ7MUSTD3GinJyLyMT71jAE25Xz8fo1T4oaeNBcZo4+juZS5O0PtYQeezB15PTE+dRqLMvP0hBzU05aoARnBXnbJ/Nx+hC316guZ+M49nsBZuIEJc9Q93g6ZaEcb5kq7rmWT30f/ks1tUG2Yq67jn+q/9FXaOwkxH/rTveQ1m5G9IHuZ6AM74SM7oo30UZuD+thLQj5ZGSeTRHmeHCAXRmUpQ2xa3i+nor2MgInzHecUAHwnOeAaw/OakjRfnyvK9zAfw6wl2ql/V5CHv6pHVtpiBDIE3UuOLJ5cNm9HWQr1cYQh10sDEpGV/Yi4GVeGUbbhO/ouDVLtNBcfX9eUS8+M43MpcVBfjoPKPj59ILtsQm3KHELQHMoc2yKBga7hSCpjZ46vz83rwZokewEHJa6pvzKHcJQgv/K6vuPAu5L7Q62d+yp4uYxle29LgOD6kZzlPcihuTIX2XvZzr/Lb3iwdqW9JCSDleMwYU3ElYXQAEwdH1ce7SWYDLiclACmrQzO66jHmKgjCWDA0zzINbcaWwsEJyG1J99lBCIW2jnBuZxSirfFicAF+TVn+pCzuoz0RaItc6GdcCqNF4MAD+biTgse3A+GTuyKRN34NAfmLT0zJvfyETnSj3Ti8urpzfhuoLR1XQgXZKN/Poy3K3l/ugfZmItk0f2uT82VOTi2sj93NnSj/pygqFOizPjcpySsnISkL9qhKzCRrXO/xpcsEBltSG4v0onG8lz68HH9usgRuUiua/mI2vs1zYkc3LuS69Tvwa6Zt+tZffg9teu020lCbtwyOJSrCXSBQcfucAisJMXIuVTvBiOD9zoUq+Rz8L657gpVP7pPuRutZFHuBqj2Zb8yHurdKQWyz0HGR1s3dDmhnKIc15VHH05C4OLJ9eR4uJyql6GWJO1tRYYyeh9PeqUfT6VOHBdkQx7kpx1jCSvvoywzrvCRfjynT5LbSdkHdsY9wlf9lfbHfSI+2ijpfl96lSTk2DmJICt98mGursNSfuGqh73GV+74uj503edQ81XJr/bYg2PpZdmK2nqOHLIhv0flchxsV9dkV94f5Z0k1OVMUgKdY1hlYiIa2JVHu0NJyMdxZcL6/pHRML4TgM/RFUY75uj3OeHpPsdiCAn5vOnLFeiGxfguB2VhyJPfZZbzaW5OQi6z18uw1CfLYZ7ePqauSWc1EtK8yvsVCdAHTuKyqV9ybEdz0fz35cgE/iIJ7497vb5LJpGuSKh0FvpxjMHO7cRJQ/avh3DX6qCUy8nScWfOmhey1ZLjKf14O7dPtwGRW9lvSUJ+P21dXh9HZfBBbmSSTUgvrl/HkDFqqS7xpqWMUJ3X8pLdXBgpyQc+hIRwUE84oeaCQQB0+aG+C0gHRsboBkjfKN2Ty4UClPyJr/HU1p+oau9G4YYF1qUMfEeOfU9RJxs3QK+XYQi3rvEYU8Yi/fuTV2SD4dXmS50/if2BpLHJhbtw8RxcwFJ4+jXK3idtRELg3TUnySBn1/eyb10HL+kRmT3tIiHH3++hDHkIg655lhGm+nBbqZEQDwX13ZW7rzoJyTbQm+5Fv2WSTkrfoJ37JPpQqtmgrinvJCEG1IR25YCp5A6JompJJFQ6qOoZS0JiKHwvScgFK6OC2phlncsmh6ONxmPMcv6uIMZXkqFyD/2SanVqr4hLuHEfH5+H2nru2GocXXc83Am8XoYmEtlFAuq3RkKK5NzQ1N5zxmaewooyMvpT09t72fGr6dcfGPQrvdUcx/slKhXJdJGQCA57FNmUulE9bUjugL5fhR3THx/auA59Xn3K9NU1d3QuO9qVu86chBxjyUY/pY2o79I3NH8RoWybep+bk6DuIe8kIdoJUFkAAANmSURBVCmWgZmkjEqGJQPlOsqlXpMELLXjPj4lsdAWY+JeVyL1ZduShJi4jBmnkqHTFwAxPp+u5HMtDUz9Mg9/4njIrXvoR6RCe76T3IlQiORxIhMp6CnO/U4gjj/ylY7nsnGd+8s+vF7jeb/0qeRzk1FKx3I22no7NyqXmfvlzI4L93s0oLHL3OeNPsAFDPlQ1rzom+TYMD8ltyvVdzmy7nGnEabMx5Mc1XFRW+Ymfbus2Ab1ase92CvJ7ciJwsekrAdASQ6uU2RmvvTJh7LuY2zNrYuEHHvau47dVsGTvvRxWeUfzNl1wHxqqZOE5Fw1AqAjNzoc1L8LaM8BilRTMu3EopQFlMCtzcGF4x6ULwPju5yuJjRg0IaPA0Zbv8Z1xiExJ93juc9bINew8Lm5PKXSkUPYM45w86eoxpFs3gf4Knm98MDwfc6QuBOvO4E7O/NX34qmmB/3+nc9BUscqXdncAfWfD13snO8vSyZuI/+dQ38yrnL4aUH4epjqux4SB5dI6+RUKlz16GThjsr8/V58r3UrY+re8Hbk+Qu69XG5ybMyHWfbFzt/YFLG+yI5Pake8sceTxJj27zfp1ylYTcwfUEKW/0CWG4Lmg5Mb670h0ArjGG39+HhJgPTuGGTV8I60/4ct58dwdh3DL5XOhTBgwu7sAYlz+FZUB+P9fdIMFK8mlcsPSnDGPy8bnVxvH7dY+IgmuuIxkf9YwPCege5aWu6cvn7sbqkY7udx0zDu39/q52kqPMkbl0Uvqgzuei+xx3jeURhxNwOVf1QS5npw+PBNSmRkJcq41fGwcndztiHPqU/WicMkcfkks2BA6qK/Wn+90OGIfkRFPD0u0DH1Ni3JrumQO4lUkPhxoOalslIV2cOheQNx2HflAgYM819ZUVOfYZ45gy3nS8PvdLP4fK5ff3wVFz0sNjTLz69KXx97XFXmnbRyb1pYeuP6B07dg5c4cYyWsJuUSQu3zzpCRUm3jqgkAQ6EZA0RBLxrknIjNIaN/SOyQ0d01mfkGgQEBLJZZUc00eBe2L9EJCc9Vi5hUEOhDAqbWP2tHk5NVEbOwRke9LIaF9COV6EAgCkyIQEpoU3nQeBILAPgRCQvsQyvUgEAQmRSAkNCm86TwIBIF9CISE9iGU60EgCEyKwP8DKgTOfro6ErEAAAAASUVORK5CYII=;" vertex="1" parent="1">
          <mxGeometry x="360" y="950" width="172.74" height="104" as="geometry" />
        </mxCell>
        <mxCell id="benL4QOIB2VxET3UyS8y-34" value="" style="endArrow=classic;html=1;strokeWidth=1;exitX=0.5;exitY=1;exitDx=0;exitDy=0;" edge="1" parent="1" source="benL4QOIB2VxET3UyS8y-28">
          <mxGeometry width="50" height="50" relative="1" as="geometry">
            <mxPoint x="280" y="890" as="sourcePoint" />
            <mxPoint x="150" y="960" as="targetPoint" />
          </mxGeometry>
        </mxCell>
        <mxCell id="benL4QOIB2VxET3UyS8y-35" value="" style="endArrow=classic;html=1;strokeWidth=1;exitX=0.5;exitY=1;exitDx=0;exitDy=0;" edge="1" parent="1" source="benL4QOIB2VxET3UyS8y-29" target="benL4QOIB2VxET3UyS8y-33">
          <mxGeometry width="50" height="50" relative="1" as="geometry">
            <mxPoint x="160" y="830" as="sourcePoint" />
            <mxPoint x="160" y="970" as="targetPoint" />
          </mxGeometry>
        </mxCell>
        <mxCell id="benL4QOIB2VxET3UyS8y-36" style="edgeStyle=orthogonalEdgeStyle;rounded=0;orthogonalLoop=1;jettySize=auto;html=1;entryX=0;entryY=0.5;entryDx=0;entryDy=0;endArrow=classic;endFill=1;strokeWidth=1;exitX=0.5;exitY=0;exitDx=0;exitDy=0;curved=1;" edge="1" parent="1" source="benL4QOIB2VxET3UyS8y-38" target="benL4QOIB2VxET3UyS8y-26">
          <mxGeometry relative="1" as="geometry" />
        </mxCell>
        <mxCell id="benL4QOIB2VxET3UyS8y-37" style="edgeStyle=orthogonalEdgeStyle;curved=1;rounded=0;orthogonalLoop=1;jettySize=auto;html=1;entryX=0;entryY=0.5;entryDx=0;entryDy=0;endArrow=classic;endFill=1;strokeWidth=1;exitX=0.5;exitY=1;exitDx=0;exitDy=0;" edge="1" parent="1" source="benL4QOIB2VxET3UyS8y-38" target="benL4QOIB2VxET3UyS8y-40">
          <mxGeometry relative="1" as="geometry" />
        </mxCell>
        <mxCell id="benL4QOIB2VxET3UyS8y-38" value="GitHub" style="rounded=1;whiteSpace=wrap;html=1;verticalAlign=top;" vertex="1" parent="1">
          <mxGeometry x="-210" y="930" width="120" height="120" as="geometry" />
        </mxCell>
        <mxCell id="benL4QOIB2VxET3UyS8y-39" value="Microservice Repository" style="ellipse;whiteSpace=wrap;html=1;aspect=fixed;fillColor=#dae8fc;strokeColor=#6c8ebf;" vertex="1" parent="1">
          <mxGeometry x="-190" y="960" width="80" height="80" as="geometry" />
        </mxCell>
        <mxCell id="benL4QOIB2VxET3UyS8y-40" value="Cleanup" style="rounded=1;whiteSpace=wrap;html=1;verticalAlign=top;" vertex="1" parent="1">
          <mxGeometry x="20" y="1140" width="430" height="120" as="geometry" />
        </mxCell>
        <mxCell id="benL4QOIB2VxET3UyS8y-41" value="" style="edgeStyle=orthogonalEdgeStyle;rounded=0;orthogonalLoop=1;jettySize=auto;html=1;endArrow=classic;endFill=1;" edge="1" parent="1" source="benL4QOIB2VxET3UyS8y-43" target="benL4QOIB2VxET3UyS8y-45">
          <mxGeometry relative="1" as="geometry" />
        </mxCell>
        <mxCell id="benL4QOIB2VxET3UyS8y-42" style="edgeStyle=orthogonalEdgeStyle;rounded=0;orthogonalLoop=1;jettySize=auto;html=1;entryX=0.5;entryY=1;entryDx=0;entryDy=0;endArrow=classic;endFill=1;strokeWidth=1;" edge="1" parent="1" source="benL4QOIB2VxET3UyS8y-43">
          <mxGeometry relative="1" as="geometry">
            <mxPoint x="150" y="1029" as="targetPoint" />
          </mxGeometry>
        </mxCell>
        <mxCell id="benL4QOIB2VxET3UyS8y-43" value="Tear down PR queues" style="ellipse;whiteSpace=wrap;html=1;aspect=fixed;fillColor=#f8cecc;strokeColor=#b85450;" vertex="1" parent="1">
          <mxGeometry x="110" y="1170" width="80" height="80" as="geometry" />
        </mxCell>
        <mxCell id="benL4QOIB2VxET3UyS8y-44" style="edgeStyle=orthogonalEdgeStyle;rounded=0;orthogonalLoop=1;jettySize=auto;html=1;endArrow=classic;endFill=1;strokeWidth=1;exitX=0.5;exitY=0;exitDx=0;exitDy=0;curved=1;" edge="1" parent="1" source="benL4QOIB2VxET3UyS8y-45" target="benL4QOIB2VxET3UyS8y-33">
          <mxGeometry relative="1" as="geometry" />
        </mxCell>
        <mxCell id="benL4QOIB2VxET3UyS8y-45" value="Undeploy PR" style="ellipse;whiteSpace=wrap;html=1;aspect=fixed;fillColor=#f8cecc;strokeColor=#b85450;" vertex="1" parent="1">
          <mxGeometry x="270" y="1170" width="80" height="80" as="geometry" />
        </mxCell>
        <mxCell id="benL4QOIB2VxET3UyS8y-46" value="" style="endArrow=classic;dashed=1;html=1;dashPattern=1 3;strokeWidth=1;entryX=0;entryY=0.5;entryDx=0;entryDy=0;endFill=1;" edge="1" parent="1" target="benL4QOIB2VxET3UyS8y-43">
          <mxGeometry width="50" height="50" relative="1" as="geometry">
            <mxPoint x="30" y="1210" as="sourcePoint" />
            <mxPoint x="430" y="1270" as="targetPoint" />
          </mxGeometry>
        </mxCell>
        <mxCell id="benL4QOIB2VxET3UyS8y-47" value="" style="endArrow=classic;dashed=1;html=1;dashPattern=1 3;strokeWidth=1;endFill=1;exitX=1;exitY=0.5;exitDx=0;exitDy=0;" edge="1" parent="1" source="benL4QOIB2VxET3UyS8y-45">
          <mxGeometry width="50" height="50" relative="1" as="geometry">
            <mxPoint x="40" y="1220" as="sourcePoint" />
            <mxPoint x="430" y="1210" as="targetPoint" />
          </mxGeometry>
        </mxCell>
        <mxCell id="benL4QOIB2VxET3UyS8y-48" value="" style="shape=image;verticalLabelPosition=bottom;labelBackgroundColor=#ffffff;verticalAlign=top;aspect=fixed;imageAspect=0;image=data:image/png,iVBORw0KGgoAAAANSUhEUgAAAMgAAADICAYAAACtWK6eAAARA0lEQVR4Ae2dW2wc1RnHTUsRVFVb9Y1WRaVCaqU+9Q3x3HdeoNx6pbQUlLZxcBsloVDCraWNCvT20ApRUS5CFEqIDUmAcMnaceJ1yq3EztqOE9trY8fO+r7r3f2q76yPmYznnJndPXM5s/+VRrM7s3P7n//vfOebOTPTRvhAASigVKBNOQczoAAUIAACE0ABjQIARCMOZkEBAAIPQAGNAgBEIw5mQQEAAg9AAY0CAEQjDmZBgcCALBUrNF4o0tg5DNDAXg/k50u0ulYNTH4gQN7PL9P1TwzS5fdl6bLdWbrsXgzQwEIP7O6jrz14nDr2nqJ8oRQIEl9AOHLc8MQgtW3NUFt7NwZoYLcHtmboUx09tOX5YVoqVXwh8QWEm1UcOQQc27qpDQM0sN0D7Rm64oF+migUmweE29vcrAIgqBxSUzm2d4tKnyt/v49vBBGA3AtAUmMO22t/E/sPQFDbA2iNBwCIRhwTNRDWYXceBkAACCKIxgMARCMOan+7a38T5QdAAAgiiMYDAEQjjokaCOuwOwoBEACCCKLxAADRiIPa3+7a30T5ARAAggii8QAA0YhjogbCOuyOQgAEgCCCaDwAQDTioPa3u/Y3UX4ABIAggmg8AEA04piogbAOu6MQAAEgiCAaDwAQjTio/e2u/U2UHwABIIggGg8AEI04JmogrMPuKGQbIBf9socu2X4EAzTY8MCFHT3hQWgTIAzHln8P09PHp+nJfgytrsFT7IHsNF392AkAwu1kjhwMBz5QQCpQqRLt7BylC8JqytoUQRgQrjXxgQJSgUq1SjsASC2RBiDSFhhLBQCII3QCEGkLjKUCAASASC9g7KEAAAEgHrbAJKkAAAEg0gsYeygAQACIhy0wSSoAQACI9ALGHgoAEADiYQtMkgoAEAAivYCxhwIABIB42AKTpAIABIBIL2DsoQAAcQByMfpieViktSeVuS/WvlGLevOG+I5C7mryDHrztjYRrqPn3ry7uizpzXt2aY2uevS92mugHTW/kVs6t2bo0ruPUd+ZBZdE+NnqCvwrO02f3n4knJfHtmfoW3/7gGaX13xl9n2JJ6+Bb2LhN91+sqOHPnFHt7Hh87uO0t2vnKaVAO+r9j0S/CFVCkwtlOjmZ3L02Z29Rn3Hdyp+c8879EauEEivQICUylXKjMzTw29N0D37z9A9B5oc9p+hB14do64P52ixWA60o/hT6ynANXzn/+ZozxvmfPfXzCR9MLlM1YByBgLEua5qlcjI4FwpvkMBjQJsZiOeC0qFY1/qBsSxLL5CgdQrAEBSX8Q4wGYUACDNqIdlU68AAEl9EeMAm1EAgDSjHpZNvQIAJPVFjANsRgEA0ox6WDb1ClgNCJ8bn1oq0dC5FRrGkCgNuEzmVv27ciSdMKsBKVWq9I93J+nWAzm67eAQhgRpcPvBIeoank26/333z3pA/tQ/QdfuPUHX7xvAkBQNXhqgG/YN0Iu5s74GTPofrAaExe2bXKAtrw3R9euFwgWDIV4NuCx2HR6lkcJq0v3vu3/WA8Lda3on5gFJQioGhuPOt0cpN7fiaz4b/mA9ICxyDZIF+tlrw4gkMYJyHUeOFMHB3koFIAKSKtEREUkASRxNTAkHn71K0yc1gEhIevMcSZCTRAmJhCMtzSon4KkCREDCOUkeiXtUgIiE/O1ROpmSnMMJB3+3GhC+UFgsVzfdHSZykvw8IknI+YhIyA97J+T84AWvsnEbMOm/rQaEC+Dl4TlxJd0tNBL3cE/1ymbVkEfkYO2PTS7QW2MFcSegu2xs+m09IA9nJ+hOxTl3jjBI3M2DIuHwyjkYDr42tfX1YXp+cMYmFjz31XpAHu2foG+/dILuzpz2vDDFkMjEnQs2qrZ5WrcTBI5fvD4sdP7PSVxJ96QuqoncxOKuJlxo3NVECQkSdyMVgy4h58iRnVwkhoPL48bOAQIgUZGg2I4TEK6xuQDvyozSyLnNXRxETpLHFfdGI5suIXfDwdsAIArTRjnZDQgXDNded6lyEtEtBVfc64VENqtUCXnfeuRgiOS6AUiUJCi25QXIBiQcSTw6yyFx/9jE0sy6sYRDl5Bzs8oJB68PgChMG+VkFSBcQFxgypzEkbi7C1Znllab5weHM+dwawNAoiRBsS0dIAISmbgrcxJccXcbW/7mikPV8bCWcyxsJORyGecYgChMG+VkP0C4wLigRU6ihASJu9PYUjM9HB+frXIvK38DkChJUGwrCCBcYEjcg+cdoll1eJRUCblsVvk1TQGIwrRRTg4KyAYkqlPA61fcW/1+EplzeHVZ52YVXyH3Sshl1HCOAUiUJCi2VQ8gXHhc6wVJ3NkozsJuhe8SDtXZKhk5gmoDQBSmjXJyvYAISJC4b4JfJuReXdaDJOReFQgAiZIExbYaAURAEiBxb5WbrhgO7uypihyyWRU0ckhYAIjCtFFObhQQLkQucN0V9yMT6b/ibrpZJeHgMQCJkgTFtpoBZAMSn8R9S0ofBLEBh8c95PUm5E4w5HcAojBtlJObBYQL0zdxF5FkSEQcWfi2jzfgUNzsVG9C7qUHAImSBMW2TAAiIGmhxN0/Ife/COgFhHsaAFGYNsrJpgARkMicRHPF3fbE3S8hNxE5JCgAJEoSFNsyCQgXbJoTd9msavYKuQTAbwxAFKaNcrJpQDYgSVlXeQmH36lcjjB+xg86H4BESYJiW2EAwgYImribNFRQ49X7Pz84TDarnPsGQBSmjXJyWIAISGTi7nXTlSX3uDPA3CtXfYXcTELuBEN+ByBRkqDYVpiACEg4cVddJxGQJPfhdAyH7gp5WJEDgCjMGsfksAHhwvZL3HsTeMVdNKs0Xda97iGXxjY1RgSJgwjXNqMAZAMSSxJ3mXOozlbJvlVh508AxGXWOH5GBQhDwobSdpVfv+IetvF0NbyEQ3W2KuxmlXPfAEgcRLi2GSUgAhKZuCsvJsZ3jzuDqb9NVn8PudPcJr4DEJdZ4/gZNSACEt/EvfZ+Eq7NTRgtyDoYDtVrz2r3c4R3tkq1fwAkDiJc24wDEDYEm1+c3VKcAuYnm287NBJZB8fdPafFO9Jd8ojXQshmVdRNPwDiLo0YfscFyHmQeDS3WIoPZpbEaVb5empVTdvodDb8TZ2DtKdvnMYWipvUN9FlvdF94+UAyKYiiX5CnICwCdikqsSd1WDj/uV4nr7/8qCxaMLAcQT7yYEcPf3hNM2trm0SPq5mlRMoALKpWKKfEDcgAhJN4s6KLJUqdOh0QSTQN3XWzM0md5opyHcJBsP2294xOj61SCV+jZPrI+CYij7ncB8DAHEVTBw/kwCIgGS9q7zX6VWpy0fLJeoaniXOF27ZnxOAcCTgQTbDzhuvz+P5DNZPD+boD8fG6fBYgeaLZbna88aVapWO5qM9W+UGQ/4GIOcVTTw/kgKIhORXb56i7OQClfkJ2R4fnsrmfuejRXpuYIZ+d3SMtr91im5/dYh+tP8k/eDl2nDL/pPEt/ryaduHs+O0b2iWBmaXaXmt4rHW2qTVcoVeGZmj2w4m4w2/AERZVNHNSBIgEhI2+4u5s1RQ1PJSHW4dseGnl0viiSLvTi+JB7PxWaf3Z5bEO05mV9aIje+Nm1wTUX6xRI+9NyUAi/pslYwY7jEA+bh8YvuWNEAkJN/tGqSHjo4Rm94rTzAlGAN2eGxenC27kU8aNJDbuI1t6jcAMVXKTawniYBIg3FNfuvBnKjZuXm0WvaLA8GFWCxVxOvO/pgdpx++ctLYGTK57ybGACR4eYb2zyQDwiaTSTcn2Pyy0bfHCpRfLIr3h9cjCqO1slah0cIq7R+Zowd7z9DN62AkKWo4wQIg9ZRwSP9NOiDSMGxiPhv1va5BcYWdXzzKeUp2alHkHwzNudU1WiiWxcC5x/hCUSTm/AC7ZwdmaM+xceKHRnyns3ZNJalgyGMGICGZvp7V2gKINA2Puel13UsnxKlbbh7xWaeON0ZE15Xd3aeJB77Ribuq3HogJxJvXo6XSUoC7jwe1XcAUo+TQ/qvjYA4DSWbYDVoalFm49qI4/qIcxlbvgOQkExfz2ptB8QWszeynwCkHieH9F8AUn+XlUbM3sgyACQk09ezWgACQOrxSyP/bWtkoaQsA0AASNheBCAJuvrcSFMmqcugiRU2ugHWjwiCCBLAJk39BREEEaTue1OCRC1EkKa4NLMwIggiiBknqdeCCIIIggii5oMACAABIAAkuU2RIO15G/+DHERDXVSzkIMkF3wAEhUFmu0AEACisYeRWchBkIMgB9GgBEAACAABIMltitiYgAfZZ+QgGuqimoUcJLngA5CoKNBsB4AAEI09jMxCDoIcBDmIBiUAAkAACABJblMkSMJr43+Qg2ioi2oWcpDkgg9AoqJAsx0AAkA09jAyCzkIchDkIBqUrAfkkf4JunbvCfFoT/nQNYzPfwhdHHpw3vTCybMa69kxy2pA1ipV8dxaflTnrzEkSoO7MqfpzTMFOyjQ7KXVgPBx8VPPxUOfS2VawJAcDYrlup9ir/FpbLOsByQ25bDhllAAgLREMeMgG1UAgDSqHJZrCQUASEsUMw6yUQUASKPKYbmWUACAtEQx4yAbVQCANKoclmsJBeoChPs+LZUqRoaSwdcit0RJ4SBjUSAQIEvFCj3dP003P5Ojax4foGv+2eTw+AD9+Nkh+vuRKfpooRTLgWOjdijAFfKp2VUamlkxMozOrtJKqRL44H0B4Xd0//lwnj6zo5fatmaMDhd19AjoCivlwDuMP7aOAgwGV6RfuS9Ll/6mj77Y5MDr+Or9/fTzF0Zo7FwxkJC+gJxdWqOrHnm3Bsa2bmozObR30xfuPEpv5uzvsxNIbfwpsALcBN/24ghd0N5Nbe0ZahNj/t7skKEL7+ih254bIm4Z+X18AWHSvrw7W9sxk3Csr+vi7Ufoyey0335ifospICrmR98LqWLO0BX399NEwT+KBALksnvDA+QSBqQfgLSY/30Pd2Zpja4MseVy+X1ZGgcgvuWAPyRUAQCy3sRCBEmoQ2PeLQACQGK2YLI3D0AASLIdGvPeARAAErMFk715AAJAku3QmPcOgACQmC2Y7M0DEACSbIfGvHcABIDEbMFkbx6AAJBkOzTmvQMgACRmCyZ78wDEAchT6IuVbLfGsHcAxAOQSrVKGKBBtUo0vViiKx8JqzdvN1nTWfHCjh66+rETtLNrlHZ0YoAGNQ/wvSBfuqcvnNss2i0CxHkD1gXbugkDNGBPsA+c3jD63VZAjIoQpsBYd3jmjUJbABJi7RNFAWIb4QIIQAAIorHGAwBEIw5q53BrZxv0BSAABBFE4wEAohHHhhoO+xhulAMgAAQRROMBAKIRB7VzuLWzDfoCEACCCKLxAADRiGNDDYd9DDfKARAAggii8QAA0YiD2jnc2tkGfQEIAEEE0XgAgGjEsaGGwz6GG+UACABBBNF4AIBoxEHtHG7tbIO+AASAIIJoPABANOLYUMNhH8ONcgAEgCCCaDxgHJDdId08j5oy3JoS+nrraxKQ/HyJvv7g8XBepogC9C5A6BKuLu0Z+sZD/6XJ+ZLvE798X+JZLFepY+8p4sfzmH0db7Ov88Xyzb8SuRU1zNDndvbS7w+NE79q2u/jCwivgF+Xu+X5YbrigX7xwC1+6BYGaGCjBzhyMByLAd6Rzt4PBAj/kV+6zqDwq3MxQANbPcDNKm4VBf0EBiToCvE/KJAmBQBImkoTx2JcAQBiXFKsME0KAJA0lSaOxbgCAMS4pFhhmhQAIGkqTRyLcQUAiHFJscI0KQBA0lSaOBbjCvwfwoLpi0JhLDEAAAAASUVORK5CYII=;" vertex="1" parent="1">
          <mxGeometry x="115" y="960" width="70" height="70" as="geometry" />
        </mxCell>
        <mxCell id="benL4QOIB2VxET3UyS8y-49" value="Run Tests" style="ellipse;whiteSpace=wrap;html=1;aspect=fixed;fillColor=#fff2cc;strokeColor=#d6b656;" vertex="1" parent="1">
          <mxGeometry x="270" y="740" width="80" height="80" as="geometry" />
        </mxCell>
        <mxCell id="benL4QOIB2VxET3UyS8y-52" value="" style="endArrow=classic;dashed=1;html=1;dashPattern=1 3;strokeWidth=1;entryX=0;entryY=0.5;entryDx=0;entryDy=0;endFill=1;exitX=1;exitY=0.5;exitDx=0;exitDy=0;" edge="1" parent="1" source="benL4QOIB2VxET3UyS8y-49" target="benL4QOIB2VxET3UyS8y-29">
          <mxGeometry width="50" height="50" relative="1" as="geometry">
            <mxPoint x="40" y="790" as="sourcePoint" />
            <mxPoint x="120" y="790" as="targetPoint" />
          </mxGeometry>
        </mxCell>
        <mxCell id="benL4QOIB2VxET3UyS8y-54" style="edgeStyle=orthogonalEdgeStyle;rounded=0;orthogonalLoop=1;jettySize=auto;html=1;entryX=1;entryY=0.5;entryDx=0;entryDy=0;endArrow=classic;endFill=1;strokeWidth=1;exitX=0.5;exitY=1;exitDx=0;exitDy=0;curved=1;" edge="1" parent="1" source="benL4QOIB2VxET3UyS8y-53" target="benL4QOIB2VxET3UyS8y-48">
          <mxGeometry relative="1" as="geometry">
            <Array as="points">
              <mxPoint x="580" y="870" />
              <mxPoint x="240" y="870" />
              <mxPoint x="240" y="995" />
            </Array>
          </mxGeometry>
        </mxCell>
        <mxCell id="benL4QOIB2VxET3UyS8y-53" value="Tear down Build queues" style="ellipse;whiteSpace=wrap;html=1;aspect=fixed;fillColor=#f8cecc;strokeColor=#b85450;" vertex="1" parent="1">
          <mxGeometry x="540" y="740" width="80" height="80" as="geometry" />
        </mxCell>
      </root>
    </mxGraphModel>
  </diagram>
</mxfile>
